<?xml version="1.0" encoding="utf-8"?>
<!-- Generator: Adobe Illustrator 19.2.0, SVG Export Plug-In . SVG Version: 6.00 Build 0)  -->
<svg version="1.1" id="Layer_1" xmlns="http://www.w3.org/2000/svg" xmlns:xlink="http://www.w3.org/1999/xlink" x="0px" y="0px"
	 width="1920px" height="315px" viewBox="0 0 1920 315" style="enable-background:new 0 0 1920 315;" xml:space="preserve">
<style type="text/css">
	.st0{fill:#FFF9F9;}
	.st1{fill:#FBD9D9;}
</style>
<rect class="st0" width="1920" height="315"/>
<circle class="st1" cx="31.9" cy="274.7" r="1.9"/>
<circle class="st1" cx="80.7" cy="274.7" r="1.9"/>
<circle class="st1" cx="129.5" cy="274.7" r="1.9"/>
<circle class="st1" cx="178.3" cy="274.7" r="1.9"/>
<circle class="st1" cx="227.1" cy="274.7" r="1.9"/>
<circle class="st1" cx="275.9" cy="274.7" r="1.9"/>
<circle class="st1" cx="324.7" cy="274.7" r="1.9"/>
<circle class="st1" cx="373.5" cy="274.7" r="1.9"/>
<circle class="st1" cx="422.3" cy="274.7" r="1.9"/>
<circle class="st1" cx="471.1" cy="274.7" r="1.9"/>
<circle class="st1" cx="519.9" cy="274.7" r="1.9"/>
<circle class="st1" cx="568.7" cy="274.7" r="1.9"/>
<circle class="st1" cx="617.5" cy="274.7" r="1.9"/>
<circle class="st1" cx="31.9" cy="227.4" r="1.9"/>
<circle class="st1" cx="80.7" cy="227.4" r="1.9"/>
<circle class="st1" cx="129.5" cy="227.4" r="1.9"/>
<circle class="st1" cx="178.3" cy="227.4" r="1.9"/>
<circle class="st1" cx="227.1" cy="227.4" r="1.9"/>
<circle class="st1" cx="275.9" cy="227.4" r="1.9"/>
<circle class="st1" cx="324.7" cy="227.4" r="1.9"/>
<circle class="st1" cx="373.5" cy="227.4" r="1.9"/>
<circle class="st1" cx="422.3" cy="227.4" r="1.9"/>
<circle class="st1" cx="471.1" cy="227.4" r="1.9"/>
<circle class="st1" cx="519.9" cy="227.4" r="1.9"/>
<circle class="st1" cx="568.7" cy="227.4" r="1.9"/>
<circle class="st1" cx="617.5" cy="227.4" r="1.9"/>
<circle class="st1" cx="31.9" cy="180.2" r="1.9"/>
<circle class="st1" cx="80.7" cy="180.2" r="1.9"/>
<circle class="st1" cx="129.5" cy="180.2" r="1.9"/>
<circle class="st1" cx="178.3" cy="180.2" r="1.9"/>
<circle class="st1" cx="227.1" cy="180.2" r="1.9"/>
<circle class="st1" cx="275.9" cy="180.2" r="1.9"/>
<circle class="st1" cx="324.7" cy="180.2" r="1.9"/>
<circle class="st1" cx="373.5" cy="180.2" r="1.9"/>
<circle class="st1" cx="422.3" cy="180.2" r="1.9"/>
<circle class="st1" cx="471.1" cy="180.2" r="1.9"/>
<circle class="st1" cx="519.9" cy="180.2" r="1.9"/>
<circle class="st1" cx="568.7" cy="180.2" r="1.9"/>
<circle class="st1" cx="617.5" cy="180.2" r="1.9"/>
<circle class="st1" cx="31.9" cy="132.9" r="1.9"/>
<circle class="st1" cx="80.7" cy="132.9" r="1.9"/>
<circle class="st1" cx="129.5" cy="132.9" r="1.9"/>
<circle class="st1" cx="178.3" cy="132.9" r="1.9"/>
<circle class="st1" cx="227.1" cy="132.9" r="1.9"/>
<circle class="st1" cx="275.9" cy="132.9" r="1.9"/>
<circle class="st1" cx="324.7" cy="132.9" r="1.9"/>
<circle class="st1" cx="373.5" cy="132.9" r="1.9"/>
<circle class="st1" cx="422.3" cy="132.9" r="1.9"/>
<circle class="st1" cx="471.1" cy="132.9" r="1.9"/>
<circle class="st1" cx="519.9" cy="132.9" r="1.9"/>
<circle class="st1" cx="568.7" cy="132.9" r="1.9"/>
<circle class="st1" cx="617.5" cy="132.9" r="1.9"/>
<circle class="st1" cx="31.9" cy="85.7" r="1.9"/>
<circle class="st1" cx="80.7" cy="85.7" r="1.9"/>
<circle class="st1" cx="129.5" cy="85.7" r="1.9"/>
<circle class="st1" cx="178.3" cy="85.7" r="1.9"/>
<circle class="st1" cx="227.1" cy="85.7" r="1.9"/>
<circle class="st1" cx="275.9" cy="85.7" r="1.9"/>
<circle class="st1" cx="324.7" cy="85.7" r="1.9"/>
<circle class="st1" cx="373.5" cy="85.7" r="1.9"/>
<circle class="st1" cx="422.3" cy="85.7" r="1.9"/>
<circle class="st1" cx="471.1" cy="85.7" r="1.9"/>
<circle class="st1" cx="519.9" cy="85.7" r="1.9"/>
<circle class="st1" cx="568.7" cy="85.7" r="1.9"/>
<circle class="st1" cx="617.5" cy="85.7" r="1.9"/>
<circle class="st1" cx="31.9" cy="38.5" r="1.9"/>
<circle class="st1" cx="80.7" cy="38.5" r="1.9"/>
<circle class="st1" cx="129.5" cy="38.5" r="1.9"/>
<circle class="st1" cx="178.3" cy="38.5" r="1.9"/>
<circle class="st1" cx="227.1" cy="38.5" r="1.9"/>
<circle class="st1" cx="275.9" cy="38.5" r="1.9"/>
<circle class="st1" cx="324.7" cy="38.5" r="1.9"/>
<circle class="st1" cx="373.5" cy="38.5" r="1.9"/>
<circle class="st1" cx="422.3" cy="38.5" r="1.9"/>
<circle class="st1" cx="471.1" cy="38.5" r="1.9"/>
<circle class="st1" cx="519.9" cy="38.5" r="1.9"/>
<circle class="st1" cx="568.7" cy="38.5" r="1.9"/>
<circle class="st1" cx="617.5" cy="38.5" r="1.9"/>
<circle class="st1" cx="7.5" cy="299.2" r="1.9"/>
<circle class="st1" cx="56.3" cy="299.2" r="1.9"/>
<circle class="st1" cx="105.1" cy="299.2" r="1.9"/>
<circle class="st1" cx="153.9" cy="299.2" r="1.9"/>
<circle class="st1" cx="202.7" cy="299.2" r="1.9"/>
<circle class="st1" cx="251.5" cy="299.2" r="1.9"/>
<circle class="st1" cx="300.3" cy="299.2" r="1.9"/>
<circle class="st1" cx="349.1" cy="299.2" r="1.9"/>
<circle class="st1" cx="397.9" cy="299.2" r="1.9"/>
<circle class="st1" cx="446.7" cy="299.2" r="1.9"/>
<circle class="st1" cx="495.5" cy="299.2" r="1.9"/>
<circle class="st1" cx="544.3" cy="299.2" r="1.9"/>
<circle class="st1" cx="593.1" cy="299.2" r="1.9"/>
<circle class="st1" cx="7.5" cy="252" r="1.9"/>
<circle class="st1" cx="56.3" cy="252" r="1.9"/>
<circle class="st1" cx="105.1" cy="252" r="1.9"/>
<circle class="st1" cx="153.9" cy="252" r="1.9"/>
<circle class="st1" cx="202.7" cy="252" r="1.9"/>
<circle class="st1" cx="251.5" cy="252" r="1.9"/>
<circle class="st1" cx="300.3" cy="252" r="1.9"/>
<circle class="st1" cx="349.1" cy="252" r="1.9"/>
<circle class="st1" cx="397.9" cy="252" r="1.9"/>
<circle class="st1" cx="446.7" cy="252" r="1.9"/>
<circle class="st1" cx="495.5" cy="252" r="1.9"/>
<circle class="st1" cx="544.3" cy="252" r="1.9"/>
<circle class="st1" cx="593.1" cy="252" r="1.9"/>
<circle class="st1" cx="7.5" cy="204.7" r="1.9"/>
<circle class="st1" cx="56.3" cy="204.7" r="1.9"/>
<circle class="st1" cx="105.1" cy="204.7" r="1.9"/>
<circle class="st1" cx="153.9" cy="204.7" r="1.9"/>
<circle class="st1" cx="202.7" cy="204.7" r="1.9"/>
<circle class="st1" cx="251.5" cy="204.7" r="1.9"/>
<circle class="st1" cx="300.3" cy="204.7" r="1.9"/>
<circle class="st1" cx="349.1" cy="204.7" r="1.9"/>
<circle class="st1" cx="397.9" cy="204.7" r="1.9"/>
<circle class="st1" cx="446.7" cy="204.7" r="1.9"/>
<circle class="st1" cx="495.5" cy="204.7" r="1.9"/>
<circle class="st1" cx="544.3" cy="204.7" r="1.9"/>
<circle class="st1" cx="593.1" cy="204.7" r="1.9"/>
<circle class="st1" cx="7.5" cy="157.5" r="1.9"/>
<circle class="st1" cx="56.3" cy="157.5" r="1.9"/>
<circle class="st1" cx="105.1" cy="157.5" r="1.9"/>
<circle class="st1" cx="153.9" cy="157.5" r="1.9"/>
<circle class="st1" cx="202.7" cy="157.5" r="1.9"/>
<circle class="st1" cx="251.5" cy="157.5" r="1.9"/>
<circle class="st1" cx="300.3" cy="157.5" r="1.9"/>
<circle class="st1" cx="349.1" cy="157.5" r="1.9"/>
<circle class="st1" cx="397.9" cy="157.5" r="1.9"/>
<circle class="st1" cx="446.7" cy="157.5" r="1.9"/>
<circle class="st1" cx="495.5" cy="157.5" r="1.9"/>
<circle class="st1" cx="544.3" cy="157.5" r="1.9"/>
<circle class="st1" cx="593.1" cy="157.5" r="1.9"/>
<circle class="st1" cx="7.5" cy="110.2" r="1.9"/>
<circle class="st1" cx="56.3" cy="110.2" r="1.9"/>
<circle class="st1" cx="105.1" cy="110.2" r="1.9"/>
<circle class="st1" cx="153.9" cy="110.2" r="1.9"/>
<circle class="st1" cx="202.7" cy="110.2" r="1.9"/>
<circle class="st1" cx="251.5" cy="110.2" r="1.9"/>
<circle class="st1" cx="300.3" cy="110.2" r="1.9"/>
<circle class="st1" cx="349.1" cy="110.2" r="1.9"/>
<circle class="st1" cx="397.9" cy="110.2" r="1.9"/>
<circle class="st1" cx="446.7" cy="110.2" r="1.9"/>
<circle class="st1" cx="495.5" cy="110.2" r="1.9"/>
<circle class="st1" cx="544.3" cy="110.2" r="1.9"/>
<circle class="st1" cx="593.1" cy="110.2" r="1.9"/>
<circle class="st1" cx="7.5" cy="63" r="1.9"/>
<circle class="st1" cx="56.3" cy="63" r="1.9"/>
<circle class="st1" cx="105.1" cy="63" r="1.9"/>
<circle class="st1" cx="153.9" cy="63" r="1.9"/>
<circle class="st1" cx="202.7" cy="63" r="1.9"/>
<circle class="st1" cx="251.5" cy="63" r="1.9"/>
<circle class="st1" cx="300.3" cy="63" r="1.9"/>
<circle class="st1" cx="349.1" cy="63" r="1.9"/>
<circle class="st1" cx="397.9" cy="63" r="1.9"/>
<circle class="st1" cx="446.7" cy="63" r="1.9"/>
<circle class="st1" cx="495.5" cy="63" r="1.9"/>
<circle class="st1" cx="544.3" cy="63" r="1.9"/>
<circle class="st1" cx="593.1" cy="63" r="1.9"/>
<circle class="st1" cx="7.5" cy="15.8" r="1.9"/>
<circle class="st1" cx="56.3" cy="15.8" r="1.9"/>
<circle class="st1" cx="105.1" cy="15.8" r="1.9"/>
<circle class="st1" cx="153.9" cy="15.8" r="1.9"/>
<circle class="st1" cx="202.7" cy="15.8" r="1.9"/>
<circle class="st1" cx="251.5" cy="15.8" r="1.9"/>
<circle class="st1" cx="300.3" cy="15.8" r="1.9"/>
<circle class="st1" cx="349.1" cy="15.8" r="1.9"/>
<circle class="st1" cx="397.9" cy="15.8" r="1.9"/>
<circle class="st1" cx="446.7" cy="15.8" r="1.9"/>
<circle class="st1" cx="495.5" cy="15.8" r="1.9"/>
<circle class="st1" cx="544.3" cy="15.8" r="1.9"/>
<circle class="st1" cx="593.1" cy="15.8" r="1.9"/>
<circle class="st1" cx="640.8" cy="299.2" r="1.9"/>
<circle class="st1" cx="640.8" cy="252" r="1.9"/>
<circle class="st1" cx="640.8" cy="204.7" r="1.9"/>
<circle class="st1" cx="640.8" cy="157.5" r="1.9"/>
<circle class="st1" cx="640.8" cy="110.2" r="1.9"/>
<circle class="st1" cx="640.8" cy="63" r="1.9"/>
<circle class="st1" cx="640.8" cy="15.8" r="1.9"/>
<circle class="st1" cx="666.3" cy="274.7" r="1.9"/>
<circle class="st1" cx="715.1" cy="274.7" r="1.9"/>
<circle class="st1" cx="763.9" cy="274.7" r="1.9"/>
<circle class="st1" cx="812.7" cy="274.7" r="1.9"/>
<circle class="st1" cx="861.5" cy="274.7" r="1.9"/>
<circle class="st1" cx="910.3" cy="274.7" r="1.9"/>
<circle class="st1" cx="959.1" cy="274.7" r="1.9"/>
<circle class="st1" cx="1007.9" cy="274.7" r="1.9"/>
<circle class="st1" cx="1056.7" cy="274.7" r="1.9"/>
<circle class="st1" cx="1105.5" cy="274.7" r="1.9"/>
<circle class="st1" cx="1154.3" cy="274.7" r="1.9"/>
<circle class="st1" cx="1203.1" cy="274.7" r="1.9"/>
<circle class="st1" cx="1251.9" cy="274.7" r="1.9"/>
<circle class="st1" cx="666.3" cy="227.4" r="1.9"/>
<circle class="st1" cx="715.1" cy="227.4" r="1.9"/>
<circle class="st1" cx="763.9" cy="227.4" r="1.9"/>
<circle class="st1" cx="812.7" cy="227.4" r="1.9"/>
<circle class="st1" cx="861.5" cy="227.4" r="1.9"/>
<circle class="st1" cx="910.3" cy="227.4" r="1.9"/>
<circle class="st1" cx="959.1" cy="227.4" r="1.9"/>
<circle class="st1" cx="1007.9" cy="227.4" r="1.9"/>
<circle class="st1" cx="1056.7" cy="227.4" r="1.9"/>
<circle class="st1" cx="1105.5" cy="227.4" r="1.9"/>
<circle class="st1" cx="1154.3" cy="227.4" r="1.9"/>
<circle class="st1" cx="1203.1" cy="227.4" r="1.9"/>
<circle class="st1" cx="1251.9" cy="227.4" r="1.9"/>
<circle class="st1" cx="666.3" cy="180.2" r="1.9"/>
<circle class="st1" cx="715.1" cy="180.2" r="1.9"/>
<circle class="st1" cx="763.9" cy="180.2" r="1.9"/>
<circle class="st1" cx="812.7" cy="180.2" r="1.9"/>
<circle class="st1" cx="861.5" cy="180.2" r="1.9"/>
<circle class="st1" cx="910.3" cy="180.2" r="1.9"/>
<circle class="st1" cx="959.1" cy="180.2" r="1.9"/>
<circle class="st1" cx="1007.9" cy="180.2" r="1.9"/>
<circle class="st1" cx="1056.7" cy="180.2" r="1.9"/>
<circle class="st1" cx="1105.5" cy="180.2" r="1.9"/>
<circle class="st1" cx="1154.3" cy="180.2" r="1.9"/>
<circle class="st1" cx="1203.1" cy="180.2" r="1.9"/>
<circle class="st1" cx="1251.9" cy="180.2" r="1.9"/>
<circle class="st1" cx="666.3" cy="132.9" r="1.9"/>
<circle class="st1" cx="715.1" cy="132.9" r="1.9"/>
<circle class="st1" cx="763.9" cy="132.9" r="1.9"/>
<circle class="st1" cx="812.7" cy="132.9" r="1.9"/>
<circle class="st1" cx="861.5" cy="132.9" r="1.9"/>
<circle class="st1" cx="910.3" cy="132.9" r="1.9"/>
<circle class="st1" cx="959.1" cy="132.9" r="1.9"/>
<circle class="st1" cx="1007.9" cy="132.9" r="1.9"/>
<circle class="st1" cx="1056.7" cy="132.9" r="1.9"/>
<circle class="st1" cx="1105.5" cy="132.9" r="1.9"/>
<circle class="st1" cx="1154.3" cy="132.9" r="1.9"/>
<circle class="st1" cx="1203.1" cy="132.9" r="1.9"/>
<circle class="st1" cx="1251.9" cy="132.9" r="1.9"/>
<circle class="st1" cx="666.3" cy="85.7" r="1.9"/>
<circle class="st1" cx="715.1" cy="85.7" r="1.9"/>
<circle class="st1" cx="763.9" cy="85.7" r="1.9"/>
<circle class="st1" cx="812.7" cy="85.7" r="1.9"/>
<circle class="st1" cx="861.5" cy="85.7" r="1.9"/>
<circle class="st1" cx="910.3" cy="85.7" r="1.9"/>
<circle class="st1" cx="959.1" cy="85.7" r="1.9"/>
<circle class="st1" cx="1007.9" cy="85.7" r="1.9"/>
<circle class="st1" cx="1056.7" cy="85.7" r="1.9"/>
<circle class="st1" cx="1105.5" cy="85.7" r="1.9"/>
<circle class="st1" cx="1154.3" cy="85.7" r="1.9"/>
<circle class="st1" cx="1203.1" cy="85.7" r="1.9"/>
<circle class="st1" cx="1251.9" cy="85.7" r="1.9"/>
<circle class="st1" cx="666.3" cy="38.5" r="1.9"/>
<circle class="st1" cx="715.1" cy="38.5" r="1.9"/>
<circle class="st1" cx="763.9" cy="38.5" r="1.9"/>
<circle class="st1" cx="812.7" cy="38.5" r="1.9"/>
<circle class="st1" cx="861.5" cy="38.5" r="1.9"/>
<circle class="st1" cx="910.3" cy="38.5" r="1.9"/>
<circle class="st1" cx="959.1" cy="38.5" r="1.9"/>
<circle class="st1" cx="1007.9" cy="38.5" r="1.9"/>
<circle class="st1" cx="1056.7" cy="38.5" r="1.9"/>
<circle class="st1" cx="1105.5" cy="38.5" r="1.9"/>
<circle class="st1" cx="1154.3" cy="38.5" r="1.9"/>
<circle class="st1" cx="1203.1" cy="38.5" r="1.9"/>
<circle class="st1" cx="1251.9" cy="38.5" r="1.9"/>
<circle class="st1" cx="690.7" cy="299.2" r="1.9"/>
<circle class="st1" cx="739.5" cy="299.2" r="1.9"/>
<circle class="st1" cx="788.3" cy="299.2" r="1.9"/>
<circle class="st1" cx="837.1" cy="299.2" r="1.9"/>
<circle class="st1" cx="885.9" cy="299.2" r="1.9"/>
<circle class="st1" cx="934.7" cy="299.2" r="1.9"/>
<circle class="st1" cx="983.5" cy="299.2" r="1.9"/>
<circle class="st1" cx="1032.3" cy="299.2" r="1.9"/>
<circle class="st1" cx="1081.1" cy="299.2" r="1.9"/>
<circle class="st1" cx="1129.9" cy="299.2" r="1.9"/>
<circle class="st1" cx="1178.7" cy="299.2" r="1.9"/>
<circle class="st1" cx="1227.5" cy="299.2" r="1.9"/>
<circle class="st1" cx="690.7" cy="252" r="1.9"/>
<circle class="st1" cx="739.5" cy="252" r="1.9"/>
<circle class="st1" cx="788.3" cy="252" r="1.9"/>
<circle class="st1" cx="837.1" cy="252" r="1.9"/>
<circle class="st1" cx="885.9" cy="252" r="1.9"/>
<circle class="st1" cx="934.7" cy="252" r="1.9"/>
<circle class="st1" cx="983.5" cy="252" r="1.9"/>
<circle class="st1" cx="1032.3" cy="252" r="1.9"/>
<circle class="st1" cx="1081.1" cy="252" r="1.9"/>
<circle class="st1" cx="1129.9" cy="252" r="1.9"/>
<circle class="st1" cx="1178.7" cy="252" r="1.9"/>
<circle class="st1" cx="1227.5" cy="252" r="1.9"/>
<circle class="st1" cx="690.7" cy="204.7" r="1.9"/>
<circle class="st1" cx="739.5" cy="204.7" r="1.9"/>
<circle class="st1" cx="788.3" cy="204.7" r="1.9"/>
<circle class="st1" cx="837.1" cy="204.7" r="1.9"/>
<circle class="st1" cx="885.9" cy="204.7" r="1.9"/>
<circle class="st1" cx="934.7" cy="204.7" r="1.9"/>
<circle class="st1" cx="983.5" cy="204.7" r="1.9"/>
<circle class="st1" cx="1032.3" cy="204.7" r="1.9"/>
<circle class="st1" cx="1081.1" cy="204.7" r="1.9"/>
<circle class="st1" cx="1129.9" cy="204.7" r="1.9"/>
<circle class="st1" cx="1178.7" cy="204.7" r="1.9"/>
<circle class="st1" cx="1227.5" cy="204.7" r="1.9"/>
<circle class="st1" cx="690.7" cy="157.5" r="1.9"/>
<circle class="st1" cx="739.5" cy="157.5" r="1.9"/>
<circle class="st1" cx="788.3" cy="157.5" r="1.9"/>
<circle class="st1" cx="837.1" cy="157.5" r="1.9"/>
<circle class="st1" cx="885.9" cy="157.5" r="1.9"/>
<circle class="st1" cx="934.7" cy="157.5" r="1.9"/>
<circle class="st1" cx="983.5" cy="157.5" r="1.9"/>
<circle class="st1" cx="1032.3" cy="157.5" r="1.9"/>
<circle class="st1" cx="1081.1" cy="157.5" r="1.9"/>
<circle class="st1" cx="1129.9" cy="157.5" r="1.9"/>
<circle class="st1" cx="1178.7" cy="157.5" r="1.9"/>
<circle class="st1" cx="1227.5" cy="157.5" r="1.9"/>
<circle class="st1" cx="690.7" cy="110.2" r="1.9"/>
<circle class="st1" cx="739.5" cy="110.2" r="1.9"/>
<circle class="st1" cx="788.3" cy="110.2" r="1.9"/>
<circle class="st1" cx="837.1" cy="110.2" r="1.9"/>
<circle class="st1" cx="885.9" cy="110.2" r="1.9"/>
<circle class="st1" cx="934.7" cy="110.2" r="1.9"/>
<circle class="st1" cx="983.5" cy="110.2" r="1.9"/>
<circle class="st1" cx="1032.3" cy="110.2" r="1.9"/>
<circle class="st1" cx="1081.1" cy="110.2" r="1.9"/>
<circle class="st1" cx="1129.9" cy="110.2" r="1.9"/>
<circle class="st1" cx="1178.7" cy="110.2" r="1.9"/>
<circle class="st1" cx="1227.5" cy="110.2" r="1.9"/>
<circle class="st1" cx="690.7" cy="63" r="1.9"/>
<circle class="st1" cx="739.5" cy="63" r="1.9"/>
<circle class="st1" cx="788.3" cy="63" r="1.9"/>
<circle class="st1" cx="837.1" cy="63" r="1.9"/>
<circle class="st1" cx="885.9" cy="63" r="1.9"/>
<circle class="st1" cx="934.7" cy="63" r="1.9"/>
<circle class="st1" cx="983.5" cy="63" r="1.9"/>
<circle class="st1" cx="1032.3" cy="63" r="1.9"/>
<circle class="st1" cx="1081.1" cy="63" r="1.9"/>
<circle class="st1" cx="1129.9" cy="63" r="1.9"/>
<circle class="st1" cx="1178.7" cy="63" r="1.9"/>
<circle class="st1" cx="1227.5" cy="63" r="1.9"/>
<circle class="st1" cx="690.7" cy="15.8" r="1.9"/>
<circle class="st1" cx="739.5" cy="15.8" r="1.9"/>
<circle class="st1" cx="788.3" cy="15.8" r="1.9"/>
<circle class="st1" cx="837.1" cy="15.8" r="1.9"/>
<circle class="st1" cx="885.9" cy="15.8" r="1.9"/>
<circle class="st1" cx="934.7" cy="15.8" r="1.9"/>
<circle class="st1" cx="983.5" cy="15.8" r="1.9"/>
<circle class="st1" cx="1032.3" cy="15.8" r="1.9"/>
<circle class="st1" cx="1081.1" cy="15.8" r="1.9"/>
<circle class="st1" cx="1129.9" cy="15.8" r="1.9"/>
<circle class="st1" cx="1178.7" cy="15.8" r="1.9"/>
<circle class="st1" cx="1227.5" cy="15.8" r="1.9"/>
<circle class="st1" cx="1275.2" cy="299.2" r="1.9"/>
<circle class="st1" cx="1275.2" cy="252" r="1.9"/>
<circle class="st1" cx="1275.2" cy="204.7" r="1.9"/>
<circle class="st1" cx="1275.2" cy="157.5" r="1.9"/>
<circle class="st1" cx="1275.2" cy="110.2" r="1.9"/>
<circle class="st1" cx="1275.2" cy="63" r="1.9"/>
<circle class="st1" cx="1275.2" cy="15.8" r="1.9"/>
<circle class="st1" cx="1300.7" cy="274.7" r="1.9"/>
<circle class="st1" cx="1300.7" cy="227.4" r="1.9"/>
<circle class="st1" cx="1300.7" cy="180.2" r="1.9"/>
<circle class="st1" cx="1300.7" cy="132.9" r="1.9"/>
<circle class="st1" cx="1300.7" cy="85.7" r="1.9"/>
<circle class="st1" cx="1300.7" cy="38.5" r="1.9"/>
<circle class="st1" cx="1324" cy="299.2" r="1.9"/>
<circle class="st1" cx="1324" cy="252" r="1.9"/>
<circle class="st1" cx="1324" cy="204.7" r="1.9"/>
<circle class="st1" cx="1324" cy="157.5" r="1.9"/>
<circle class="st1" cx="1324" cy="110.2" r="1.9"/>
<circle class="st1" cx="1324" cy="63" r="1.9"/>
<circle class="st1" cx="1324" cy="15.8" r="1.9"/>
<circle class="st1" cx="1349.5" cy="274.7" r="1.9"/>
<circle class="st1" cx="1398.3" cy="274.7" r="1.9"/>
<circle class="st1" cx="1447.1" cy="274.7" r="1.9"/>
<circle class="st1" cx="1495.9" cy="274.7" r="1.9"/>
<circle class="st1" cx="1544.7" cy="274.7" r="1.9"/>
<circle class="st1" cx="1593.5" cy="274.7" r="1.9"/>
<circle class="st1" cx="1642.3" cy="274.7" r="1.9"/>
<circle class="st1" cx="1691.1" cy="274.7" r="1.9"/>
<circle class="st1" cx="1739.9" cy="274.7" r="1.9"/>
<circle class="st1" cx="1788.7" cy="274.7" r="1.9"/>
<circle class="st1" cx="1837.5" cy="274.7" r="1.9"/>
<circle class="st1" cx="1886.3" cy="274.7" r="1.9"/>
<circle class="st1" cx="1349.5" cy="227.4" r="1.9"/>
<circle class="st1" cx="1398.3" cy="227.4" r="1.9"/>
<circle class="st1" cx="1447.1" cy="227.4" r="1.9"/>
<circle class="st1" cx="1495.9" cy="227.4" r="1.9"/>
<circle class="st1" cx="1544.7" cy="227.4" r="1.9"/>
<circle class="st1" cx="1593.5" cy="227.4" r="1.9"/>
<circle class="st1" cx="1642.3" cy="227.4" r="1.9"/>
<circle class="st1" cx="1691.1" cy="227.4" r="1.9"/>
<circle class="st1" cx="1739.9" cy="227.4" r="1.9"/>
<circle class="st1" cx="1788.7" cy="227.4" r="1.9"/>
<circle class="st1" cx="1837.5" cy="227.4" r="1.9"/>
<circle class="st1" cx="1886.3" cy="227.4" r="1.9"/>
<circle class="st1" cx="1349.5" cy="180.2" r="1.9"/>
<circle class="st1" cx="1398.3" cy="180.2" r="1.9"/>
<circle class="st1" cx="1447.1" cy="180.2" r="1.9"/>
<circle class="st1" cx="1495.9" cy="180.2" r="1.9"/>
<circle class="st1" cx="1544.7" cy="180.2" r="1.9"/>
<circle class="st1" cx="1593.5" cy="180.2" r="1.9"/>
<circle class="st1" cx="1642.3" cy="180.2" r="1.9"/>
<circle class="st1" cx="1691.1" cy="180.2" r="1.9"/>
<circle class="st1" cx="1739.9" cy="180.2" r="1.9"/>
<circle class="st1" cx="1788.7" cy="180.2" r="1.9"/>
<circle class="st1" cx="1837.5" cy="180.2" r="1.9"/>
<circle class="st1" cx="1886.3" cy="180.2" r="1.9"/>
<circle class="st1" cx="1349.5" cy="132.9" r="1.9"/>
<circle class="st1" cx="1398.3" cy="132.9" r="1.9"/>
<circle class="st1" cx="1447.1" cy="132.9" r="1.9"/>
<circle class="st1" cx="1495.9" cy="132.9" r="1.9"/>
<circle class="st1" cx="1544.7" cy="132.9" r="1.9"/>
<circle class="st1" cx="1593.5" cy="132.9" r="1.9"/>
<circle class="st1" cx="1642.3" cy="132.9" r="1.9"/>
<circle class="st1" cx="1691.1" cy="132.9" r="1.9"/>
<circle class="st1" cx="1739.9" cy="132.9" r="1.9"/>
<circle class="st1" cx="1788.7" cy="132.9" r="1.9"/>
<circle class="st1" cx="1837.5" cy="132.9" r="1.9"/>
<circle class="st1" cx="1886.3" cy="132.9" r="1.9"/>
<circle class="st1" cx="1349.5" cy="85.7" r="1.9"/>
<circle class="st1" cx="1398.3" cy="85.7" r="1.9"/>
<circle class="st1" cx="1447.1" cy="85.7" r="1.9"/>
<circle class="st1" cx="1495.9" cy="85.7" r="1.9"/>
<circle class="st1" cx="1544.7" cy="85.7" r="1.9"/>
<circle class="st1" cx="1593.5" cy="85.7" r="1.9"/>
<circle class="st1" cx="1642.3" cy="85.7" r="1.9"/>
<circle class="st1" cx="1691.1" cy="85.7" r="1.9"/>
<circle class="st1" cx="1739.9" cy="85.7" r="1.9"/>
<circle class="st1" cx="1788.7" cy="85.7" r="1.9"/>
<circle class="st1" cx="1837.5" cy="85.7" r="1.9"/>
<circle class="st1" cx="1886.3" cy="85.7" r="1.9"/>
<circle class="st1" cx="1349.5" cy="38.5" r="1.9"/>
<circle class="st1" cx="1398.3" cy="38.5" r="1.9"/>
<circle class="st1" cx="1447.1" cy="38.5" r="1.9"/>
<circle class="st1" cx="1495.9" cy="38.5" r="1.9"/>
<circle class="st1" cx="1544.7" cy="38.5" r="1.9"/>
<circle class="st1" cx="1593.5" cy="38.5" r="1.9"/>
<circle class="st1" cx="1642.3" cy="38.5" r="1.9"/>
<circle class="st1" cx="1691.1" cy="38.5" r="1.9"/>
<circle class="st1" cx="1739.9" cy="38.5" r="1.9"/>
<circle class="st1" cx="1788.7" cy="38.5" r="1.9"/>
<circle class="st1" cx="1837.5" cy="38.5" r="1.9"/>
<circle class="st1" cx="1886.3" cy="38.5" r="1.9"/>
<circle class="st1" cx="1373.9" cy="299.2" r="1.9"/>
<circle class="st1" cx="1422.7" cy="299.2" r="1.9"/>
<circle class="st1" cx="1471.5" cy="299.2" r="1.9"/>
<circle class="st1" cx="1520.3" cy="299.2" r="1.9"/>
<circle class="st1" cx="1569.1" cy="299.2" r="1.9"/>
<circle class="st1" cx="1617.9" cy="299.2" r="1.9"/>
<circle class="st1" cx="1666.7" cy="299.2" r="1.9"/>
<circle class="st1" cx="1715.5" cy="299.2" r="1.9"/>
<circle class="st1" cx="1764.3" cy="299.2" r="1.9"/>
<circle class="st1" cx="1813.1" cy="299.2" r="1.9"/>
<circle class="st1" cx="1861.9" cy="299.2" r="1.9"/>
<circle class="st1" cx="1910.7" cy="299.2" r="1.9"/>
<circle class="st1" cx="1373.9" cy="252" r="1.9"/>
<circle class="st1" cx="1422.7" cy="252" r="1.9"/>
<circle class="st1" cx="1471.5" cy="252" r="1.9"/>
<circle class="st1" cx="1520.3" cy="252" r="1.9"/>
<circle class="st1" cx="1569.1" cy="252" r="1.9"/>
<circle class="st1" cx="1617.9" cy="252" r="1.9"/>
<circle class="st1" cx="1666.7" cy="252" r="1.9"/>
<circle class="st1" cx="1715.5" cy="252" r="1.9"/>
<circle class="st1" cx="1764.3" cy="252" r="1.9"/>
<circle class="st1" cx="1813.1" cy="252" r="1.9"/>
<circle class="st1" cx="1861.9" cy="252" r="1.9"/>
<circle class="st1" cx="1910.7" cy="252" r="1.9"/>
<circle class="st1" cx="1373.9" cy="204.7" r="1.9"/>
<circle class="st1" cx="1422.7" cy="204.7" r="1.9"/>
<circle class="st1" cx="1471.5" cy="204.7" r="1.9"/>
<circle class="st1" cx="1520.3" cy="204.7" r="1.9"/>
<circle class="st1" cx="1569.1" cy="204.7" r="1.9"/>
<circle class="st1" cx="1617.9" cy="204.7" r="1.9"/>
<circle class="st1" cx="1666.7" cy="204.7" r="1.9"/>
<circle class="st1" cx="1715.5" cy="204.7" r="1.9"/>
<circle class="st1" cx="1764.3" cy="204.7" r="1.9"/>
<circle class="st1" cx="1813.1" cy="204.7" r="1.9"/>
<circle class="st1" cx="1861.9" cy="204.7" r="1.9"/>
<circle class="st1" cx="1910.7" cy="204.7" r="1.9"/>
<circle class="st1" cx="1373.9" cy="157.5" r="1.9"/>
<circle class="st1" cx="1422.7" cy="157.5" r="1.9"/>
<circle class="st1" cx="1471.5" cy="157.5" r="1.9"/>
<circle class="st1" cx="1520.3" cy="157.5" r="1.9"/>
<circle class="st1" cx="1569.1" cy="157.5" r="1.9"/>
<circle class="st1" cx="1617.9" cy="157.5" r="1.9"/>
<circle class="st1" cx="1666.7" cy="157.5" r="1.9"/>
<circle class="st1" cx="1715.5" cy="157.5" r="1.9"/>
<circle class="st1" cx="1764.3" cy="157.5" r="1.9"/>
<circle class="st1" cx="1813.1" cy="157.5" r="1.9"/>
<circle class="st1" cx="1861.9" cy="157.5" r="1.9"/>
<circle class="st1" cx="1910.7" cy="157.5" r="1.9"/>
<circle class="st1" cx="1373.9" cy="110.2" r="1.9"/>
<circle class="st1" cx="1422.7" cy="110.2" r="1.9"/>
<circle class="st1" cx="1471.5" cy="110.2" r="1.9"/>
<circle class="st1" cx="1520.3" cy="110.2" r="1.9"/>
<circle class="st1" cx="1569.1" cy="110.2" r="1.9"/>
<circle class="st1" cx="1617.9" cy="110.2" r="1.9"/>
<circle class="st1" cx="1666.7" cy="110.2" r="1.9"/>
<circle class="st1" cx="1715.5" cy="110.2" r="1.9"/>
<circle class="st1" cx="1764.3" cy="110.2" r="1.9"/>
<circle class="st1" cx="1813.1" cy="110.2" r="1.9"/>
<circle class="st1" cx="1861.9" cy="110.2" r="1.9"/>
<circle class="st1" cx="1910.7" cy="110.2" r="1.9"/>
<circle class="st1" cx="1373.9" cy="63" r="1.9"/>
<circle class="st1" cx="1422.7" cy="63" r="1.9"/>
<circle class="st1" cx="1471.5" cy="63" r="1.9"/>
<circle class="st1" cx="1520.3" cy="63" r="1.9"/>
<circle class="st1" cx="1569.1" cy="63" r="1.9"/>
<circle class="st1" cx="1617.9" cy="63" r="1.9"/>
<circle class="st1" cx="1666.7" cy="63" r="1.9"/>
<circle class="st1" cx="1715.5" cy="63" r="1.9"/>
<circle class="st1" cx="1764.3" cy="63" r="1.9"/>
<circle class="st1" cx="1813.1" cy="63" r="1.9"/>
<circle class="st1" cx="1861.9" cy="63" r="1.9"/>
<circle class="st1" cx="1910.7" cy="63" r="1.9"/>
<circle class="st1" cx="1373.9" cy="15.8" r="1.9"/>
<circle class="st1" cx="1422.7" cy="15.8" r="1.9"/>
<circle class="st1" cx="1471.5" cy="15.8" r="1.9"/>
<circle class="st1" cx="1520.3" cy="15.8" r="1.9"/>
<circle class="st1" cx="1569.1" cy="15.8" r="1.9"/>
<circle class="st1" cx="1617.9" cy="15.8" r="1.9"/>
<circle class="st1" cx="1666.7" cy="15.8" r="1.9"/>
<circle class="st1" cx="1715.5" cy="15.8" r="1.9"/>
<circle class="st1" cx="1764.3" cy="15.8" r="1.9"/>
<circle class="st1" cx="1813.1" cy="15.8" r="1.9"/>
<circle class="st1" cx="1861.9" cy="15.8" r="1.9"/>
<circle class="st1" cx="1910.7" cy="15.8" r="1.9"/>
</svg>
