<?xml version="1.0" encoding="utf-8"?>
<!-- Generator: Adobe Illustrator 18.1.1, SVG Export Plug-In . SVG Version: 6.00 Build 0)  -->
<svg version="1.1" xmlns="http://www.w3.org/2000/svg" xmlns:xlink="http://www.w3.org/1999/xlink" x="0px" y="0px"
	 viewBox="-17 174 448 448" enable-background="new -17 174 448 448" xml:space="preserve">
<g id="Layer_2">
	<rect x="86" y="261" fill="#FFFFFF" width="260" height="266"/>
</g>
<g id="Layer_1">
	<g>
		<path fill="#333333" d="M207,174C83.3,174-17,274.3-17,398S83.3,622,207,622s224-100.3,224-224S330.7,174,207,174z M315.3,473.5
			c1.5,1.5,2.3,3.5,2.3,5.6s-0.8,4.2-2.3,5.6l-21.6,21.7c-1.6,1.6-3.6,2.3-5.6,2.3s-4.1-0.8-5.6-2.3L207,430.8l-75.4,75.7
			c-1.5,1.6-3.6,2.3-5.6,2.3s-4.1-0.8-5.6-2.3l-21.6-21.7c-1.5-1.5-2.3-3.5-2.3-5.6s0.8-4.2,2.3-5.6l75.7-76l-75.9-75
			c-3.1-3.1-3.1-8.2,0-11.3l21.6-21.7c1.5-1.5,3.5-2.3,5.6-2.3s4.1,0.8,5.6,2.3l75.7,74.7l75.7-74.7c1.5-1.5,3.5-2.3,5.6-2.3
			s4.1,0.8,5.6,2.3l21.6,21.7c3.1,3.1,3.1,8.2,0,11.3l-75.9,75L315.3,473.5z"/>
	</g>
</g>
</svg>
