<?xml version="1.0" encoding="utf-8"?>
<!-- Generator: Adobe Illustrator 19.1.0, SVG Export Plug-In . SVG Version: 6.00 Build 0)  -->
<svg version="1.1" id="Layer_1" xmlns="http://www.w3.org/2000/svg" xmlns:xlink="http://www.w3.org/1999/xlink" x="0px" y="0px"
	 width="1296px" height="385px" viewBox="342 204.2 1296 385" style="enable-background:new 342 204.2 1296 385;"
	 xml:space="preserve">
<style type="text/css">
	.st0{fill:#DCB041;}
	.st1{fill:#C7E3DC;}
	.st2{fill:#F4C4B6;}
	.st3{fill:#99C0C9;}
	.st4{fill:#F5C6B8;}
	.st5{fill:#F5C7BA;}
	.st6{fill:#C1DAD6;}
	.st7{fill:#9CC3CB;}
</style>
<path class="st0" d="M673.1,284.3c0.8-2.7-0.8-3.4-3.1-3.7c-0.7-0.1-1.7,0-1.9-0.9c-0.2-0.8,0.6-1.3,1.2-1.5c2.9-1.4,4-3.7,3.9-6.8
	c0-0.7-0.2-1.9,0.8-2.2c0.9-0.3,1.5,0.7,1.8,1.4c1.3,2.6,3.3,2.8,5.8,2c0.7-0.2,1.6-0.7,2.1,0.1s-0.3,1.4-0.7,2
	c-1.8,2.1-1.3,4.1,0.1,6.2c0.7,1,2.1,2.3,1.2,3.4c-0.8,1-2.2-0.3-3.3-0.7c-1.8-0.8-3-0.6-4,1.1c-0.2,0.3-0.5,0.6-0.8,0.8
	c-0.8,0.8-1.4,2.4-2.5,2C672.6,287.2,673.3,285.5,673.1,284.3z"/>
<path class="st0" d="M1621.3,411.9c0.8-2.5-0.8-3.1-2.8-3.4c-0.7-0.1-1.6,0-1.7-0.9c-0.1-0.7,0.5-1.1,1.1-1.4
	c2.7-1.2,3.7-3.3,3.5-6.2c0-0.7-0.1-1.8,0.7-2c0.8-0.3,1.4,0.7,1.7,1.3c1.2,2.3,3,2.6,5.3,1.8c0.6-0.2,1.5-0.6,1.9,0.1
	c0.5,0.7-0.2,1.3-0.7,1.8c-1.6,1.9-1.2,3.7,0.1,5.6c0.6,0.9,1.9,2.1,1.1,3.1c-0.7,0.9-2-0.3-3-0.7c-1.6-0.7-2.8-0.5-3.7,1
	c-0.2,0.3-0.5,0.5-0.7,0.8c-0.7,0.7-1.2,2.2-2.2,1.9C1620.8,414.5,1621.5,413,1621.3,411.9z"/>
<path class="st1" d="M1599.6,584.9c0.1,1.1-0.6,1.6-1.5,1.9c-1.4,0.5-2.9,1-4.3,1.5c-3.6,1.2-3.6,1.2-4.8-2.5
	c-2.1-6.3-2.1-6.3,4.2-8.4c3.5-1.2,3.5-1.2,4.7,2.3c0.5,1.5,1.1,3,1.7,4.6C1599.6,584.5,1599.6,584.7,1599.6,584.9z"/>
<path class="st2" d="M988.1,569.9c-0.7-0.5-1.6-1.1-2.4-1.7c-3.5-2.8-3.7-1.7-0.6-5.6c2-2.5,2.1-2.5,4.6-0.6
	c3.1,2.4,3.1,2.4,0.9,5.4c-0.4,0.6-0.8,1.2-1.3,1.7C989,569.5,988.7,569.9,988.1,569.9z"/>
<path class="st3" d="M1509.7,525.6c-4.3,0-7.8-3.7-7.7-7.9c0.1-3.8,4.1-7.7,7.8-7.7c3.7,0,7.7,4.1,7.7,7.8
	C1517.6,522.1,1514,525.6,1509.7,525.6z"/>
<path class="st2" d="M1631.6,496.6c3.7,0,6.4,2.7,6.4,6.2c-0.1,3.3-3,6.1-6.4,6.1c-3.2,0-6.2-3.1-6.3-6.3
	C1625.2,499.3,1628.1,496.6,1631.6,496.6z"/>
<path class="st4" d="M1412,220.5c2.5,0,3.9,1.6,3.9,3.8c0,2.4-1.6,3.3-3.7,3.4c-2.1,0.1-3.8-1.7-3.6-3.8
	C1408.7,221.7,1410.1,220.6,1412,220.5z"/>
<path class="st5" d="M1355.9,332.4c-1.4-0.2-2-1.2-2.8-2c-0.7-0.7-0.5-1.4,0.1-2.2c2.7-3.4,5.5-6.7,8.2-10.1c1.3-1.6,2.5-1.1,3.8,0
	c1.3,1.1,0.7,2-0.2,3.1c-2.7,3.2-5.4,6.5-8,9.7C1356.6,331.5,1356.3,332,1355.9,332.4z"/>
<path class="st0" d="M359.6,468.4c-1.4-4.1-4.1-3.4-7.2-1.8c-1,0.5-2.1,1.5-3.2,0.6c-0.9-0.8-0.4-2.1,0.1-3
	c2.4-4.4,1.7-8.2-1.4-11.9c-0.7-0.9-1.9-2.3-1.1-3.4c0.9-1.2,2.5-0.4,3.6,0.1c4,2,6.7,0.5,9-2.7c0.7-0.9,1.4-2.3,2.7-1.8
	c1.3,0.5,1,2,0.9,3.1c-0.3,4.2,2.1,6.2,5.7,7.6c1.7,0.7,4.7,1,4.6,3.1c-0.1,2-3,1.7-4.7,2c-2.9,0.7-4.3,2-4,5
	c0.1,0.6-0.1,1.2-0.2,1.7c-0.3,1.7,0.5,4.3-1.2,4.8C361.6,472.3,361,469.6,359.6,468.4z"/>
<path class="st0" d="M1471.2,310.4c-1.2-3.4-3.4-2.9-6-1.5c-0.8,0.4-1.8,1.3-2.7,0.5c-0.7-0.7-0.3-1.8,0.1-2.5c2-3.6,1.4-6.8-1.1-10
	c-0.6-0.7-1.6-1.9-0.9-2.9s2.1-0.4,3,0.1c3.3,1.7,5.6,0.4,7.5-2.3c0.5-0.7,1.2-1.9,2.3-1.5c1.1,0.4,0.8,1.7,0.7,2.6
	c-0.3,3.5,1.7,5.2,4.7,6.4c1.5,0.6,3.9,0.8,3.8,2.6c-0.1,1.7-2.5,1.4-3.9,1.7c-2.4,0.5-3.6,1.7-3.3,4.2c0.1,0.5-0.1,1-0.2,1.5
	c-0.2,1.4,0.4,3.5-1,4C1472.8,313.7,1472.3,311.4,1471.2,310.4z"/>
<path class="st3" d="M470.3,570.4c2.3,3.3,1.3,8.8-1.9,11.1c-3.6,2.5-8.8,1.6-11.2-2c-2.2-3.3-1.2-8.8,2-11
	C462.4,566.3,468.1,567.3,470.3,570.4z"/>
<path class="st2" d="M558.8,206.3c4-2.9,7.7-2.4,10.6,1.6c2.7,3.7,2.1,8.2-1.4,10.8c-3.6,2.7-8.2,2.1-10.8-1.4
	C554.3,213.7,555,209.1,558.8,206.3z"/>
<path class="st1" d="M385.4,369.8c1,1.1,0.6,2.2-0.1,3.2c-1.1,1.6-2.3,3.2-3.4,4.9c-2.8,3.9-2.8,3.9-6.9,1.1c-7-4.9-7-4.9-2-12
	c2.7-3.9,2.7-3.8,6.7-1.1c1.7,1.2,3.5,2.3,5.2,3.5C385.1,369.5,385.2,369.7,385.4,369.8z"/>
<path class="st1" d="M1586.5,259.1c1.1,1.2,0.6,2.3-0.1,3.4c-1.2,1.8-2.4,3.5-3.7,5.2c-3,4.2-3,4.2-7.4,1.2
	c-7.5-5.3-7.5-5.3-2.1-12.8c2.9-4.1,2.9-4.1,7.1-1.2c1.8,1.3,3.7,2.5,5.6,3.7C1586.1,258.7,1586.3,258.9,1586.5,259.1z"/>
<path class="st0" d="M426.3,566.9c-1.2,0.9-1.7-0.1-2-0.7c-1.6-2.8-3.3-4.3-6.6-2.2c-1.5,0.9-2-0.5-1.4-1.5c1.7-3.4,0.9-6.2-1.2-9
	c-0.4-0.5-1-1.3-0.2-1.8c0.4-0.3,1.2-0.2,1.6,0c2.9,1.4,5.1,0.6,6.9-2c0.8-1.2,2.2-1.6,2.1,0.5c-0.3,3.9,2.2,5.2,5.2,6.4
	c0.8,0.3,2.1,0.4,1.8,1.7c-0.2,0.9-1.3,0.9-2.1,1c-3.2,0.3-4,2.2-3.9,5C426.5,565.2,426.3,566.1,426.3,566.9z"/>
<path class="st1" d="M793.6,574.8c-2.9-1.4-3.1-4.4-3.1-6.5c0.1-3.5,4-3,6-3c3.6,0,3,3.9,3.1,6C799.7,575.1,795.6,573.3,793.6,574.8
	z"/>
<path class="st4" d="M397.5,398.1c-2.5,1.9-6.3,1.5-7.2-0.5c-1.1-2.2-1.1-4.6,1.2-6.3c1.8-1.4,5.6-1,6.6,0.9
	C399.1,394.5,399,396.8,397.5,398.1z"/>
<path class="st6" d="M344,235.9c2.2-1.5,4.3-1.5,6.1,0.7c1.7,2.2,1.4,5.1-0.6,6.5c-1.9,1.3-5.5,0.8-6.6-1.1
	C341.6,239.8,341.5,237.6,344,235.9z"/>
<path class="st7" d="M777.2,546.2c-0.1,1.2-0.9,1.4-1.6,1.7c-3.3,1.2-6.5,2.4-9.8,3.6c-1.4,0.5-2.5,0.4-3-1.2
	c-0.5-1.4,0.1-2.2,1.4-2.7c3.4-1.2,6.8-2.5,10.1-3.7C776.6,543.1,776.6,545,777.2,546.2z"/>
<path class="st1" d="M476.2,267.9c-1.5-3.5-3-7-4.5-10.5c-0.7-1.7,0.9-1.8,1.8-2.3c1.1-0.6,1.6-0.4,2,0.8c1.4,3.4,3,6.8,4.4,10.2
	c0.4,0.9,0.9,2.1-0.4,2.7C478.2,269.4,477,269.3,476.2,267.9z"/>
<path class="st1" d="M1561.3,405.2c-1.5-3.5-3-7-4.5-10.5c-0.7-1.7,0.9-1.8,1.8-2.3c1.1-0.6,1.6-0.4,2,0.8c1.4,3.4,3,6.8,4.4,10.2
	c0.4,0.9,0.9,2.1-0.4,2.7C1563.3,406.7,1562.1,406.7,1561.3,405.2z"/>
<path class="st5" d="M439.1,490.6c-0.5,0-1.2,0.1-1.9,0.1c-3.2,0-6.5-0.1-9.7-0.2c-1.5,0-2.4-0.7-2.4-2.3c-0.1-1.8,1.2-1.9,2.3-1.9
	c3.5,0,6.9,0.2,10.4,0.4c1.2,0.1,2,0.7,2.2,1.9C440.1,489.4,439.9,490,439.1,490.6z"/>
<path class="st5" d="M1567.6,439.3c-0.5,0-1.2,0.1-1.9,0.1c-3.2-0.1-6.5-0.1-9.7-0.2c-1.5,0-2.4-0.7-2.4-2.3
	c-0.1-1.8,1.3-1.9,2.3-1.9c3.5,0.1,6.9,0.3,10.4,0.4c1.2,0.1,2,0.7,2.2,1.9C1568.6,438.1,1568.4,438.7,1567.6,439.3z"/>
</svg>
