<?xml version="1.0" encoding="utf-8"?>
<!-- Generator: Adobe Illustrator 19.1.0, SVG Export Plug-In . SVG Version: 6.00 Build 0)  -->
<svg version="1.1" id="Layer_1" xmlns="http://www.w3.org/2000/svg" xmlns:xlink="http://www.w3.org/1999/xlink" x="0px" y="0px"
	 width="1296px" height="282px" viewBox="342 256 1296 282" style="enable-background:new 342 256 1296 282;" xml:space="preserve">
<style type="text/css">
	.st0{fill:#DCB041;}
	.st1{fill:#F5C6B8;}
	.st2{fill:#F5C7BA;}
	.st3{fill:#F4C4B6;}
	.st4{fill:#C7E3DC;}
	.st5{fill:#C1DAD6;}
	.st6{fill:#9CC3CB;}
</style>
<path class="st0" d="M440.3,319.8c0.8-2.7-0.8-3.4-3.1-3.7c-0.7-0.1-1.7,0-1.9-0.9c-0.2-0.8,0.6-1.3,1.2-1.5c3-1.4,4.1-3.7,3.9-6.8
	c0-0.7-0.2-1.9,0.8-2.2c0.9-0.3,1.5,0.7,1.8,1.4c1.3,2.6,3.3,2.8,5.8,2c0.7-0.2,1.6-0.7,2.1,0.1c0.5,0.8-0.3,1.4-0.7,2
	c-1.8,2.1-1.3,4.1,0.1,6.2c0.7,1,2.1,2.3,1.3,3.4c-0.8,1-2.2-0.3-3.3-0.7c-1.8-0.8-3-0.6-4,1.1c-0.2,0.3-0.5,0.6-0.8,0.8
	c-0.8,0.8-1.4,2.4-2.5,2.1C439.8,322.6,440.5,321,440.3,319.8z"/>
<path class="st0" d="M1627.6,464.6c0.8-2.5-0.8-3.1-2.8-3.4c-0.7-0.1-1.6,0-1.7-0.9c-0.1-0.7,0.6-1.1,1.1-1.4
	c2.7-1.2,3.7-3.3,3.5-6.2c0-0.7-0.1-1.8,0.7-2c0.9-0.3,1.4,0.7,1.7,1.3c1.2,2.3,3,2.6,5.3,1.9c0.6-0.2,1.5-0.6,1.9,0.1
	c0.5,0.7-0.2,1.3-0.7,1.8c-1.6,1.9-1.2,3.7,0.1,5.7c0.6,0.9,1.9,2.1,1.1,3.1c-0.8,0.9-2-0.3-3-0.7c-1.6-0.7-2.8-0.5-3.7,1
	c-0.2,0.3-0.5,0.5-0.7,0.8c-0.7,0.7-1.3,2.2-2.3,1.9C1627.1,467.1,1627.8,465.6,1627.6,464.6z"/>
<path class="st1" d="M1417.2,272.2c2.5,0,3.9,1.6,3.9,3.9c0,2.4-1.6,3.3-3.7,3.5c-2.1,0.1-3.8-1.7-3.7-3.8
	C1414,273.4,1415.3,272.3,1417.2,272.2z"/>
<path class="st2" d="M1387.6,384.6c-1.4-0.2-2-1.2-2.8-2c-0.7-0.7-0.5-1.4,0.1-2.2c2.7-3.4,5.5-6.8,8.2-10.2c1.3-1.6,2.6-1.1,3.8,0
	c1.3,1.1,0.7,2-0.2,3.1c-2.7,3.2-5.4,6.5-8.1,9.7C1388.3,383.7,1387.9,384.2,1387.6,384.6z"/>
<path class="st0" d="M359.7,521.3c-1.4-4.1-4.1-3.5-7.2-1.8c-1,0.5-2.1,1.5-3.2,0.6c-0.9-0.8-0.4-2.1,0.1-3c2.4-4.4,1.7-8.2-1.4-12
	c-0.7-0.9-2-2.3-1.1-3.5c0.9-1.2,2.5-0.4,3.6,0.1c4,2,6.7,0.5,9.1-2.7c0.7-0.9,1.4-2.3,2.7-1.8c1.3,0.5,1,2,0.9,3.1
	c-0.3,4.3,2.1,6.3,5.7,7.7c1.8,0.7,4.7,1,4.6,3.1c-0.1,2-3,1.7-4.7,2c-2.9,0.7-4.3,2-4,5.1c0.1,0.6-0.1,1.2-0.2,1.8
	c-0.3,1.7,0.5,4.3-1.2,4.8C361.7,525.2,361.1,522.5,359.7,521.3z"/>
<path class="st0" d="M1476.7,362.5c-1.2-3.4-3.4-2.9-6-1.5c-0.8,0.4-1.8,1.3-2.7,0.5c-0.7-0.7-0.3-1.8,0.1-2.5c2-3.6,1.4-6.9-1.1-10
	c-0.6-0.7-1.6-1.9-0.9-2.9c0.8-1,2.1-0.4,3,0.1c3.3,1.7,5.6,0.4,7.6-2.3c0.6-0.7,1.2-1.9,2.3-1.5c1.1,0.4,0.8,1.7,0.7,2.6
	c-0.3,3.6,1.7,5.2,4.8,6.4c1.5,0.6,3.9,0.8,3.9,2.6c-0.1,1.7-2.5,1.4-3.9,1.7c-2.4,0.6-3.6,1.7-3.3,4.2c0.1,0.5-0.1,1-0.2,1.5
	c-0.2,1.4,0.4,3.6-1,4C1478.3,365.8,1477.8,363.6,1476.7,362.5z"/>
<path class="st3" d="M559.8,258c4-2.9,7.7-2.4,10.6,1.6c2.7,3.7,2.1,8.2-1.4,10.9c-3.6,2.7-8.2,2.1-10.9-1.4
	C555.3,265.3,556,260.8,559.8,258z"/>
<path class="st4" d="M1592.6,311c1.1,1.2,0.6,2.4-0.1,3.4c-1.2,1.8-2.4,3.5-3.7,5.2c-3,4.3-3,4.3-7.4,1.2c-7.5-5.3-7.5-5.3-2.1-12.9
	c2.9-4.2,2.9-4.1,7.2-1.2c1.9,1.3,3.8,2.5,5.6,3.7C1592.3,310.6,1592.4,310.8,1592.6,311z"/>
<path class="st1" d="M412.8,475.2c-2.5,1.9-6.3,1.5-7.3-0.5c-1.1-2.2-1.1-4.6,1.2-6.3c1.8-1.4,5.7-1,6.6,1
	C414.4,471.6,414.3,473.9,412.8,475.2z"/>
<path class="st5" d="M344,287.7c2.3-1.5,4.4-1.5,6.1,0.7c1.7,2.2,1.4,5.1-0.6,6.5c-1.9,1.3-5.5,0.8-6.7-1.1
	C341.6,291.6,341.5,289.4,344,287.7z"/>
<path class="st5" d="M509.5,412.5c3.7-2.5,7.2-2.5,10.2,1.2c2.9,3.6,2.4,8.5-1,10.8c-3.1,2.2-9.1,1.4-11-1.8
	C505.4,419,505.4,415.3,509.5,412.5z"/>
<path class="st4" d="M476.8,319.8c-1.5-3.5-3.1-7-4.5-10.6c-0.7-1.7,0.9-1.8,1.8-2.3c1.1-0.6,1.6-0.4,2.1,0.8
	c1.4,3.4,3,6.8,4.4,10.2c0.4,0.9,0.9,2.1-0.4,2.8C478.9,321.3,477.7,321.2,476.8,319.8z"/>
<path class="st4" d="M1567.3,457.8c-1.5-3.5-3.1-7-4.5-10.6c-0.7-1.7,0.9-1.8,1.8-2.3c1.1-0.6,1.6-0.4,2.1,0.8
	c1.4,3.4,3,6.8,4.4,10.2c0.4,0.9,0.9,2.1-0.4,2.8C1569.3,459.3,1568.1,459.3,1567.3,457.8z"/>
<path class="st6" d="M387.7,443.2c-0.5,0-1.2,0.1-1.9,0.1c-3.3,0-6.5-0.1-9.8-0.2c-1.5,0-2.4-0.7-2.5-2.3c-0.1-1.8,1.2-1.9,2.3-1.9
	c3.5,0,7,0.2,10.4,0.4c1.2,0.1,2,0.7,2.2,1.9C388.7,442,388.5,442.6,387.7,443.2z"/>
<path class="st2" d="M1573.6,492.1c-0.5,0-1.2,0.1-1.9,0.1c-3.3-0.1-6.5-0.1-9.8-0.2c-1.5,0-2.4-0.7-2.4-2.3
	c-0.1-1.8,1.3-1.9,2.3-1.9c3.5,0.1,7,0.3,10.4,0.5c1.2,0.1,2,0.7,2.2,1.9C1574.6,490.8,1574.4,491.4,1573.6,492.1z"/>
</svg>
