<?xml version="1.0" encoding="utf-8"?>
<!-- Generator: Adobe Illustrator 19.1.0, SVG Export Plug-In . SVG Version: 6.00 Build 0)  -->
<svg version="1.1" id="Layer_1" xmlns="http://www.w3.org/2000/svg" xmlns:xlink="http://www.w3.org/1999/xlink" x="0px" y="0px"
	 width="64px" height="32px" viewBox="0 0 64 32" style="enable-background:new 0 0 64 32;" xml:space="preserve">
<style type="text/css">
	.st0{fill:#DEB241;}
	.st1{fill:#F2C5B8;}
	.st2{fill:#C8E2DC;}
</style>
<path class="st0" d="M56.1,24.6c0.6-1.9-0.6-2.3-2.1-2.5c-0.5-0.1-1.2,0-1.3-0.6c-0.1-0.5,0.4-0.9,0.8-1c2-0.9,2.8-2.5,2.6-4.7
	c0-0.5-0.1-1.3,0.5-1.5s1,0.5,1.3,1c0.9,1.8,2.3,1.9,4,1.4c0.5-0.1,1.1-0.5,1.4,0.1c0.4,0.5-0.2,1-0.5,1.4c-1.2,1.4-0.9,2.8,0,4.3
	c0.5,0.7,1.4,1.6,0.9,2.3c-0.6,0.7-1.5-0.2-2.2-0.5c-1.2-0.5-2.1-0.4-2.8,0.8c-0.1,0.2-0.3,0.4-0.5,0.6c-0.5,0.5-0.9,1.7-1.7,1.4
	C55.8,26.6,56.3,25.4,56.1,24.6z"/>
<path class="st1" d="M27.3,6.5c-0.5-0.4-1.1-0.7-1.6-1.2c-2.4-2-2.5-1.2-0.4-3.8c1.4-1.8,1.4-1.7,3.1-0.4c2.1,1.6,2.1,1.6,0.6,3.7
	c-0.3,0.4-0.6,0.8-0.9,1.2C27.9,6.3,27.8,6.6,27.3,6.5z"/>
<path class="st2" d="M3.3,31c-1-2.4-2.1-4.8-3.1-7.2c-0.5-1.2,0.6-1.2,1.2-1.6c0.7-0.4,1.1-0.3,1.4,0.5c0.9,2.4,2,4.7,3,7
	c0.3,0.6,0.6,1.4-0.3,1.9C4.7,32,3.9,31.9,3.3,31z"/>
</svg>
