<?xml version="1.0" encoding="utf-8"?>
<!-- Generator: Adobe Illustrator 19.1.0, SVG Export Plug-In . SVG Version: 6.00 Build 0)  -->
<svg version="1.1" id="Layer_1" xmlns="http://www.w3.org/2000/svg" xmlns:xlink="http://www.w3.org/1999/xlink" x="0px" y="0px"
	 width="203px" height="48px" viewBox="-204 373 203 48" style="enable-background:new -204 373 203 48;" xml:space="preserve">
<style type="text/css">
	.st0{fill:#DEB033;}
	.st1{fill:#F7C7B8;}
	.st2{fill:#CFE5DE;}
	.st3{fill:#A1C3CA;}
	.st4{fill:#C9DED9;}
	.st5{fill:#F7C9BA;}
	.st6{fill:#A5C5CC;}
	.st7{fill:#F7CBBC;}
	.st8{fill:#E7A8A6;}
</style>
<path class="st0" d="M-129.3,379.4c1.8,0.2,2.6-0.8,3.1-2.3c0.1-0.4,0.2-1,0.8-1c0.5,0,0.6,0.5,0.7,0.9c0.5,1.7,1.5,2.7,3.5,2.4
	c0.4-0.1,1-0.1,1.2,0.4c0.3,0.5-0.3,0.8-0.6,1.1c-1.8,1.2-2.7,2.7-2.3,5c0.1,0.3,0.1,0.9-0.4,1c-0.4,0.1-0.7-0.2-0.9-0.4
	c-1.3-1.7-2.5-1.4-3.9-0.1c-0.3,0.3-0.8,0.8-1.3,0.5c-0.5-0.3-0.1-0.9,0-1.4c0.7-2.8,0.7-2.8-1.4-4.2c-0.4-0.2-1-0.4-0.9-0.9
	c0.1-0.7,0.8-0.5,1.2-0.6C-130.1,379.6-129.7,379.5-129.3,379.4z"/>
<path class="st1" d="M-113.7,386.5c1.5-0.3,2.5,0.4,2.7,1.9c0.2,1.4-0.6,2.6-1.9,2.8c-1.4,0.3-2.6-0.5-2.8-1.9
	C-116,388-115.1,386.8-113.7,386.5z"/>
<path class="st2" d="M-200.4,398.7c0.1,0.3-0.1,0.5-0.3,0.6c-0.4,0.2-0.8,0.4-1.2,0.6c-1,0.5-1,0.5-1.5-0.5
	c-0.9-1.7-0.9-1.7,0.8-2.6c0.9-0.5,0.9-0.5,1.4,0.4c0.2,0.4,0.5,0.8,0.7,1.2C-200.4,398.6-200.4,398.7-200.4,398.7z"/>
<path class="st0" d="M-71.7,420.6c-0.7-0.3-0.4-0.7-0.2-1c0.8-1.3,0.9-2.5-0.7-3.3c-0.8-0.4-0.3-0.9,0.3-1c1.8-0.1,2.8-1.2,3.4-2.8
	c0.1-0.3,0.3-0.7,0.7-0.5c0.2,0.1,0.4,0.4,0.4,0.7c0.1,1.6,1,2.2,2.5,2.4c0.7,0.1,1.2,0.5,0.3,1c-1.7,0.9-1.6,2.2-1.4,3.7
	c0.1,0.4,0.3,1-0.2,1.2c-0.4,0.1-0.7-0.3-0.9-0.6c-0.9-1.3-1.9-1.1-3.1-0.4C-70.9,420.3-71.3,420.4-71.7,420.6z"/>
<path class="st3" d="M-144.7,388.9c-1.1-0.1-2.4,0.1-3.4-0.3c-2.1-0.8-0.5-2.6-0.7-3.9c-0.1-0.7,0-1.7,1.3-1.4
	c0.1,0,0.2,0.1,0.3,0.1c4.4,0.3,4.4,0.3,3.6,4.8C-143.8,388.9-143.8,388.9-144.7,388.9z"/>
<path class="st4" d="M-130.9,394.3c-0.3-0.5-1.4-0.5-1.3-1.4c0.1-0.7,1.2-1.6,1.5-1.5c0.7,0.3,1.6,1.2,1.5,1.5
	C-129.6,393.7-130.4,394.4-130.9,394.3z"/>
<path class="st2" d="M-174.3,386.4c0.9,0.6,1.6,1.9,1.7,2.9c0.1,1.4-1.7,1.5-2.7,2c-0.6,0.3-2.1-1.6-2.3-2.7
	C-177.6,388.1-175.6,386.6-174.3,386.4z"/>
<path class="st5" d="M-88.1,405.7c-0.2,0.5-2.7,2-3.1,1.8c-0.6-0.2-2.3-2.9-2-3.1c1-0.7,1.8-1.8,3.1-1.8
	C-89.6,402.6-88,405.3-88.1,405.7z"/>
<path class="st1" d="M-158.8,382.5c1.1-0.1,2,0.4,2.4,1.7c0.3,1.2-0.5,2.4-1.7,2.7c-1.2,0.2-2.4-0.6-2.6-1.8
	C-160.9,383.8-160.2,382.7-158.8,382.5z"/>
<path class="st6" d="M-51.5,402.5c-0.1,0.6-0.6,0.5-0.9,0.6c-1.7,0.3-3.3,0.6-5,1c-0.9,0.2-1-0.2-1.2-0.9c-0.2-0.8,0.2-1,0.8-1.2
	c1.7-0.3,3.4-0.5,5.1-0.9C-51.2,400.8-51.7,401.9-51.5,402.5z"/>
<path class="st7" d="M-122.2,399.5c-0.2,0.5-0.5,0.6-0.9,0.7c-1.5,0.4-2.9,0.8-4.3,1.3c-0.9,0.3-1.6,0.2-1.9-0.8
	c-0.3-1.1,0.7-1,1.2-1.2c1.5-0.5,3-0.9,4.5-1.4c0.4-0.1,0.8-0.5,1.1,0C-122.3,398.7-122.3,399.2-122.2,399.5z"/>
<path class="st2" d="M-177.1,406.6c0.7-1.7,1.4-3.4,2.2-5.1c0.4-0.8,0.9-0.3,1.4-0.1c0.6,0.2,0.7,0.4,0.4,1
	c-0.7,1.6-1.4,3.3-2.1,4.9c-0.2,0.4-0.4,1-1.1,0.8C-177,407.8-177.3,407.4-177.1,406.6z"/>
<path class="st1" d="M-140.3,377.6c0.1,0.5-0.2,0.6-0.5,0.9c-0.4,0.4-0.8,0.3-1.2,0c-1.3-1.2-2.7-2.4-4-3.6c-0.5-0.5-0.4-1,0-1.5
	c0.3-0.4,0.7-0.4,1-0.1c1.5,1.3,2.9,2.6,4.3,4C-140.4,377.4-140.4,377.5-140.3,377.6z"/>
<path class="st8" d="M-45.1,394.5c-1.1-1.1-0.8-2.5-0.4-3.5c0.6-1.6,2.3-0.8,3.2-0.5c1.6,0.6,0.8,2.3,0.5,3.2
	C-42.4,395.5-44,394.1-45.1,394.5z"/>
<path class="st0" d="M-159.2,395.6c-0.6,1-0.4,1.8,0.3,2.5c0.1,0.1,0.4,0.3,0.3,0.6c-0.2,0.3-0.5,0.1-0.7,0
	c-0.7-0.3-1.3-0.1-1.6,0.6c-0.1,0.3-0.3,0.6-0.6,0.5s-0.3-0.4-0.2-0.7c0.1-1.2-1.1-0.7-1.6-1.1c0.1-0.1,0.1-0.3,0.1-0.3
	c0.8-0.6,1.2-1.3,1-2.3c-0.1-0.4,0.2-0.7,0.5-0.3C-161,396-160.2,396-159.2,395.6z"/>
<path class="st0" d="M-91.5,390.2c-0.6,1-0.4,1.8,0.3,2.5c0.1,0.1,0.4,0.3,0.3,0.6c-0.2,0.3-0.5,0.1-0.7,0c-0.7-0.3-1.3-0.1-1.6,0.6
	c-0.1,0.3-0.3,0.6-0.6,0.5c-0.3-0.1-0.3-0.4-0.2-0.7c0.1-1.2-1.1-0.7-1.6-1.1c0.1-0.1,0.1-0.3,0.1-0.3c0.8-0.6,1.2-1.3,1-2.3
	c-0.1-0.4,0.2-0.7,0.5-0.3C-93.3,390.6-92.5,390.6-91.5,390.2z"/>
<path class="st2" d="M-82.7,393.3c-0.1-0.4,0.1-0.7,0.3-0.9c0.3-0.4,0.7-0.5,1-0.3c1.6,1,3.2,2.1,4.8,3.2c0.5,0.3,0.4,0.8,0.1,1.2
	c-0.3,0.5-0.8,0.7-1.3,0.4c-1.6-1.1-3.2-2.2-4.7-3.2C-82.6,393.5-82.6,393.4-82.7,393.3z"/>
<path class="st1" d="M-69,398.5c1.1-0.1,2,0.4,2.4,1.7c0.3,1.2-0.5,2.4-1.7,2.7c-1.2,0.2-2.4-0.6-2.6-1.8
	C-71.1,399.8-70.3,398.7-69,398.5z"/>
<path class="st0" d="M-189.5,407.5c-0.5,1.1-0.2,1.9,0.6,2.6c0.2,0.1,0.4,0.3,0.2,0.5c-0.1,0.2-0.3,0.1-0.5,0.1
	c-0.9-0.3-1.5,0-1.8,0.8c-0.1,0.2-0.2,0.4-0.5,0.4s-0.3-0.3-0.3-0.5c-0.1-0.7-0.4-1-1.1-1c-0.7,0.1-0.7-0.3-0.3-0.7
	c0.7-0.6,0.9-1.2,0.6-2c-0.1-0.2-0.1-0.5,0.1-0.6c0.2-0.1,0.4,0,0.5,0.1C-191.3,408.1-190.5,408.1-189.5,407.5z"/>
<path class="st0" d="M-14.6,387.5c-0.5,1.1-0.2,1.9,0.6,2.6c0.2,0.1,0.4,0.3,0.2,0.5c-0.1,0.2-0.3,0.1-0.5,0.1
	c-0.9-0.3-1.5,0-1.8,0.8c-0.1,0.2-0.2,0.4-0.5,0.4s-0.3-0.3-0.3-0.5c-0.1-0.7-0.4-1-1.1-1c-0.7,0.1-0.7-0.3-0.3-0.7
	c0.7-0.6,0.9-1.2,0.6-2c-0.1-0.2-0.1-0.5,0.1-0.6c0.2-0.1,0.4,0,0.5,0.1C-16.3,388.1-15.5,388.1-14.6,387.5z"/>
<path class="st4" d="M-152,398.8c-0.8,0-1.3-0.4-1.3-1.3c0-0.9,0.6-1.5,1.4-1.5c0.7,0,1.5,0.8,1.4,1.5
	C-150.6,398.2-151,398.8-152,398.8z"/>
<path class="st4" d="M-41.4,411.9c-0.5-0.8-2.4-0.9-2.2-2.3c0.1-1.2,2.1-2.7,2.6-2.5c1.3,0.6,2.7,2,2.5,2.5
	C-39.2,411-40.6,412.3-41.4,411.9z"/>
<path class="st7" d="M-27.3,392.6c0,0.3-0.2,0.4-0.3,0.5c-0.3,0.2-0.6,0.3-0.9,0c-0.9-0.9-1.7-1.8-2.5-2.7c-0.3-0.3,0-0.5,0.2-0.7
	c0.2-0.2,0.5-0.5,0.7-0.2c0.9,0.9,1.8,1.9,2.7,2.9C-27.4,392.4-27.4,392.5-27.3,392.6z"/>
<path class="st0" d="M-24.7,402.9c-0.2,0.2-0.3,0.4-0.5,0.5c-0.8,0.5-0.8,1.2-0.4,1.9c0.2,0.3,0.5,0.7,0.2,1s-0.6-0.1-0.9-0.2
	c-0.7-0.4-1.2-0.4-1.6,0.4c-0.1,0.2-0.3,0.5-0.6,0.4c-0.2-0.1-0.3-0.4-0.3-0.6c0-1-0.5-1.6-1.4-2c-0.2-0.1-0.6-0.2-0.5-0.6
	c0.1-0.3,0.4-0.3,0.6-0.3c0.8,0,1.2-0.5,1.3-1.3c0-0.2,0-0.6,0.3-0.7s0.4,0.2,0.5,0.4c0.5,1.1,1.4,0.8,2.2,0.8
	C-25.3,402.6-24.9,402.5-24.7,402.9z"/>
<path class="st1" d="M-183.2,404.1c-0.8,0-1.3-0.4-1.3-1.3s0.6-1.5,1.4-1.5c0.7,0,1.5,0.8,1.4,1.5
	C-181.8,403.6-182.2,404.1-183.2,404.1z"/>
<path class="st5" d="M-54.3,410.5c0.7,0,1.6,0.8,1.4,1.5c-0.1,0.8-0.7,1.3-1.5,1.3s-1.3-0.6-1.4-1.4
	C-55.9,411.2-55,410.5-54.3,410.5z"/>
<path class="st6" d="M-106,390c0.1,0.1,0.3,0.2,0.4,0.3c0.8,0.8,1.6,1.7,2.4,2.5c0.2,0.3,0.4,0.5,0.1,0.8c-0.3,0.3-0.6,0.4-0.9,0
	c-0.8-0.8-1.6-1.7-2.4-2.5c-0.2-0.2-0.3-0.4-0.2-0.7C-106.5,390.3-106.4,390.1-106,390z"/>
<path class="st2" d="M-77.1,409.6c0.1,0.8-0.4,1.1-1.1,1.1c-0.8,0-1.3-0.5-1.2-1.2c0-0.6,0.5-1.2,1.2-1.1
	C-77.5,408.4-77,408.7-77.1,409.6z"/>
<path class="st1" d="M-1,386.8c0,1.2-0.8,2-1.9,2c-1.1,0-1.9-0.8-1.9-1.9S-4,385-2.9,385C-1.7,384.9-1,385.6-1,386.8z"/>
</svg>
