<?xml version="1.0" encoding="utf-8"?>
<!-- Generator: Adobe Illustrator 19.1.0, SVG Export Plug-In . SVG Version: 6.00 Build 0)  -->
<svg version="1.1" id="PATTERN__x2F__TEXTURE" xmlns="http://www.w3.org/2000/svg" xmlns:xlink="http://www.w3.org/1999/xlink"
	 x="0px" y="0px" width="289px" height="335px" viewBox="-313.9 459.3 289 335"
	 style="enable-background:new -313.9 459.3 289 335;" xml:space="preserve">
<style type="text/css">
	.st0{fill:#DDB141;}
	.st1{fill:#F3C5B7;}
	.st2{fill:#F5C6B9;}
	.st3{fill:#C8E2DC;}
	.st4{fill:#9AC0C9;}
	.st5{fill:#F5C7BB;}
</style>
<path class="st0" d="M-61.1,561.9c0.5-1.7-0.5-2.1-1.9-2.3c-0.4-0.1-1.1,0-1.2-0.6c-0.1-0.5,0.4-0.8,0.7-1c1.8-0.9,2.5-2.3,2.4-4.3
	c0-0.5-0.1-1.2,0.5-1.4c0.6-0.2,0.9,0.5,1.2,0.9c0.8,1.6,2.1,1.8,3.6,1.3c0.4-0.1,1-0.4,1.3,0.1s-0.2,0.9-0.5,1.2
	c-1.1,1.3-0.8,2.6,0,3.9c0.4,0.6,1.3,1.4,0.8,2.1c-0.5,0.6-1.4-0.2-2-0.5c-1.1-0.5-1.9-0.4-2.5,0.7c-0.1,0.2-0.3,0.4-0.5,0.5
	c-0.5,0.5-0.9,1.5-1.5,1.3C-61.4,563.7-61,562.6-61.1,561.9z"/>
<path class="st1" d="M-29.6,574.3c2.5,0,4.4,1.8,4.4,4.3c0,2.3-2,4.2-4.4,4.2c-2.2,0-4.3-2.1-4.3-4.3C-34,576.2-32,574.3-29.6,574.3
	z"/>
<path class="st2" d="M-77.9,492.4c1.7,0,2.7,1.1,2.6,2.6c0,1.7-1.1,2.3-2.5,2.4s-2.6-1.2-2.5-2.6C-80.1,493.2-79.2,492.5-77.9,492.4
	z"/>
<path class="st0" d="M-113,473.3c-0.8-2.4-2.4-2-4.1-1c-0.6,0.3-1.2,0.9-1.8,0.3c-0.5-0.5-0.2-1.2,0.1-1.7c1.4-2.5,1-4.7-0.8-6.8
	c-0.4-0.5-1.1-1.3-0.6-2s1.4-0.3,2,0.1c2.3,1.1,3.8,0.3,5.2-1.6c0.4-0.5,0.8-1.3,1.6-1c0.8,0.3,0.5,1.2,0.5,1.8
	c-0.2,2.4,1.2,3.6,3.3,4.4c1,0.4,2.7,0.6,2.6,1.8c0,1.2-1.7,0.9-2.7,1.2c-1.7,0.4-2.5,1.2-2.3,2.9c0,0.3-0.1,0.7-0.1,1
	c-0.2,1,0.3,2.4-0.7,2.7C-111.9,475.5-112.2,474-113,473.3z"/>
<path class="st3" d="M-41.8,480.7c0.7,0.8,0.4,1.6-0.1,2.4c-0.8,1.2-1.7,2.4-2.5,3.6c-2.1,2.9-2.1,2.9-5.1,0.8
	c-5.1-3.6-5.1-3.6-1.4-8.8c2-2.8,2-2.8,4.9-0.8c1.3,0.9,2.6,1.7,3.8,2.6C-42,480.5-41.9,480.6-41.8,480.7z"/>
<path class="st3" d="M-38.2,547.7c-1-2.4-2.1-4.8-3.1-7.2c-0.5-1.2,0.6-1.2,1.2-1.6c0.7-0.4,1.1-0.3,1.4,0.5c0.9,2.4,2,4.7,3,7
	c0.3,0.6,0.6,1.4-0.3,1.9C-36.8,548.7-37.6,548.6-38.2,547.7z"/>
<path class="st4" d="M-275.2,785.4c1.6,2.2,0.9,6-1.3,7.6c-2.4,1.7-6,1.1-7.7-1.3c-1.5-2.3-0.9-6.1,1.4-7.6
	C-280.6,782.6-276.7,783.3-275.2,785.4z"/>
<path class="st0" d="M-305.4,783c-0.8,0.6-1.1-0.1-1.4-0.5c-1.1-1.9-2.3-3-4.6-1.5c-1,0.6-1.3-0.3-1-1.1c1.2-2.3,0.6-4.3-0.8-6.2
	c-0.3-0.3-0.7-0.9-0.1-1.3c0.3-0.2,0.8-0.2,1.1,0c2,1,3.5,0.4,4.7-1.3c0.6-0.8,1.5-1.1,1.4,0.4c-0.2,2.7,1.5,3.6,3.6,4.4
	c0.5,0.2,1.4,0.3,1.3,1.2c-0.1,0.6-0.9,0.6-1.4,0.7c-2.2,0.2-2.7,1.5-2.7,3.5C-305.2,781.8-305.3,782.5-305.4,783z"/>
<path class="st5" d="M-296.6,730.7c-0.4,0-0.8,0.1-1.3,0c-2.2,0-4.4-0.1-6.7-0.1c-1,0-1.6-0.5-1.7-1.6c-0.1-1.2,0.9-1.3,1.6-1.3
	c2.4,0,4.8,0.2,7.1,0.3c0.8,0,1.3,0.5,1.5,1.3C-295.9,729.8-296.1,730.2-296.6,730.7z"/>
</svg>
