<?xml version="1.0" encoding="utf-8"?>
<!-- Generator: Adobe Illustrator 19.1.0, SVG Export Plug-In . SVG Version: 6.00 Build 0)  -->
<svg version="1.1" id="Layer_1" xmlns="http://www.w3.org/2000/svg" xmlns:xlink="http://www.w3.org/1999/xlink" x="0px" y="0px"
	 width="605px" height="62px" viewBox="-3.2 366.2 605 62" style="enable-background:new -3.2 366.2 605 62;" xml:space="preserve">
<style type="text/css">
	.st0{fill:#E5A5A5;}
</style>
<g id="PATTERN__x2F__TEXTURE">
	<path class="st0" d="M601.6,394c0,0.3-0.2,0.4-0.4,0.5c-0.3,0.2-0.5,0.1-0.7-0.1c-0.7-0.9-1.4-1.7-2-2.6c-0.3-0.4-0.1-0.6,0.2-0.9
		c0.2-0.2,0.5-0.2,0.6,0.1c0.8,0.9,1.5,1.9,2.2,2.9C601.5,393.8,601.6,393.9,601.6,394z"/>
	<path class="st0" d="M36.9,417.7c-1.4-0.6-1.9-1.7-1.9-3.2c0-0.3,0.1-0.9-0.4-1c-0.4-0.1-0.7,0.4-0.8,0.7c-0.6,1.1-1.4,1.3-2.5,0.9
		c-0.2-0.1-0.3-0.1-0.6-0.1c-0.1,0-0.4,0-0.5,0.1c-0.2,0.2-0.1,0.5,0.1,0.7c1.1,1.1,0.9,2.2,0.1,3.4c-0.3,0.3-0.9,0.9-0.4,1.3
		c0.4,0.4,0.9-0.1,1.3-0.3c0.8-0.4,1.5-0.4,2,0.5c0.3,0.4,0.7,0.8,1,1.2c0.3,0.3,0.6,0.3,0.6-0.2c0-0.3,0-0.6,0-0.8
		c0-1.6,0-1.6,1.6-2c0.3-0.1,0.6-0.1,0.7-0.4C37.5,418.1,37.1,417.8,36.9,417.7z"/>
	<path class="st0" d="M576.4,393.8c-0.5,1.2-1.8,1.9-2.9,1.5c-1.2-0.5-1.9-1.9-1.4-3.1c0.4-1.1,2-1.8,3.1-1.4
		C576.3,391.3,576.8,392.6,576.4,393.8z"/>
	<path class="st0" d="M13.9,427.8c-0.5-0.5-1.2-0.8-1.6-1.4c-0.7-1.2,0.8-1.5,1.1-2.2c0.2-0.4,0.6-0.8,1.1-0.2
		c0,0.1,0.1,0.1,0.1,0.2c2,1.8,2,1.9,0,3.7C14.4,428.1,14.4,428.1,13.9,427.8z"/>
	<path class="st0" d="M546.3,387.7c0.4,0.2,1.2,1.7,1.1,2c-0.2,0.4-1.7,1.3-1.9,1.2c-0.3-0.2-1.2-1.8-1.1-2.1
		C544.5,388.5,546,387.6,546.3,387.7z"/>
	<path class="st0" d="M541,381.1c-0.1,0.3-0.4,0.3-0.6,0.4c-1,0.1-2.1,0.1-3.1,0.2c-0.5,0-0.7-0.1-0.8-0.6c0-0.5,0.2-0.6,0.6-0.6
		c1.1-0.1,2.1-0.1,3.2-0.2C541.1,380.2,540.9,380.7,541,381.1z"/>
	<path class="st0" d="M64.5,408.2c-0.1-0.3-0.4-0.5-0.7-0.6c-0.3-0.5-0.8-0.7-1.3-0.9c-0.1-0.3-0.4-0.5-0.7-0.6
		c-0.1-0.1-0.2-0.2-0.3-0.3c0-1.8,0.6-3.6,0.3-5.5c-0.8,0.2-1.2,0.8-1.5,1.4c-1.5,0.8-2.4,2.4-4,3.1c-1.4-0.1-2.8-0.1-4.2-0.2
		c-0.9-0.1-0.8,0.5-0.6,1c0.2,0.4,0.5,0.9,1,1.2c1.6,0.8,1.3,1.8,0.4,3c-0.2,0.3-0.3,0.6-0.4,0.9c-0.5,0.2-0.8,0.6-1,1.1
		c-0.1,0-0.1,0.1-0.1,0.2c-0.2,0.2-0.3,0.4,0.1,0.5c1.5,0.1,3,0.1,4.4-0.4c0.5-0.2,1-0.4,1.5,0.1c0,0.6,0.4,0.9,0.8,1.2
		c0.6,0.8,0.9,1.9,2.2,2.4c0-0.6,0-1.1,0-1.6c0.9-1.1,0.5-2.4,0.8-3.6c1.5-0.8,3.3-0.3,4.8-1.1C65.6,408.6,65,408.4,64.5,408.2z"/>
	<path class="st0" d="M520.5,395.4c1.1,1.3,1.1,2.6,0.4,4c-0.2,0.3-0.5,0.9-0.1,1.2c0.4,0.3,0.8-0.1,1.2-0.3c1-0.8,2-0.6,2.9,0.2
		c0.1,0.1,0.3,0.2,0.5,0.4c0.1,0,0.4,0.2,0.6,0.1c0.3-0.1,0.3-0.5,0.2-0.7c-0.6-1.6,0.1-2.6,1.5-3.4c0.4-0.3,1.3-0.5,1-1.2
		c-0.2-0.5-1-0.3-1.5-0.3c-1,0-1.7-0.3-1.8-1.4c-0.1-0.6-0.3-1.1-0.5-1.6s-0.4-0.5-0.7-0.1c-0.2,0.3-0.3,0.5-0.4,0.8
		c-0.7,1.6-0.7,1.6-2.5,1.3c-0.3-0.1-0.6-0.2-0.9,0C520.1,394.7,520.3,395.1,520.5,395.4z"/>
	<path class="st0" d="M554.3,375.6c-0.1,0.3-0.1,0.6,0.1,0.9c-0.1,0.6,0.1,1.1,0.3,1.6c-0.1,0.3-0.1,0.6,0.1,0.9c0,0.1,0,0.3,0,0.4
		c-1.3,1.3-3,2.3-4.1,3.9c0.8,0.4,1.4,0.2,2.1,0.1c1.7,0.5,3.4-0.1,5.1,0.5c1,1,2,2,3,3.1c0.6,0.7,0.9,0.2,1.1-0.3
		c0.2-0.5,0.3-1.1,0.1-1.5c-0.6-1.7,0.3-2.3,1.8-2.5c0.3,0,0.6-0.3,0.9-0.4c0.5,0.3,1,0.1,1.5-0.1c0.1,0,0.1,0,0.2,0
		c0.3,0,0.5-0.1,0.3-0.4c-1-1.1-2.1-2.2-3.6-2.8c-0.5-0.2-1.1-0.4-1.1-1.1c0.4-0.4,0.3-0.9,0.2-1.4c0.1-1,0.7-2,0-3.3
		c-0.4,0.5-0.8,0.8-1.1,1.2c-1.4,0.2-2.1,1.4-3.2,2.1c-1.6-0.5-2.6-2.1-4.4-2.6C553.7,374.5,554.1,375.1,554.3,375.6z"/>
	<path class="st0" d="M2.3,406.5c-0.9-0.2-1.8-0.2-1.9-1.4c0-0.2,0-0.6-0.3-0.6c-0.4,0-0.4,0.3-0.5,0.6c-0.3,0.6-0.7,1.2-1.6,1
		c-0.3,0.1-0.8-0.2-0.9,0.2c-0.2,0.4,0.2,0.7,0.5,0.8c0.7,0.5,0.9,1.2,0.7,2c-0.2,0.4-0.3,0.7,0,0.9s0.5-0.2,0.7-0.3
		c0.6-0.5,1.1-0.5,1.6,0.1c0.2,0.2,0.4,0.6,0.8,0.4c0.4-0.2,0.2-0.6,0.1-1c-0.2-0.9,0.1-1.5,1-1.9c0.2-0.1,0.6-0.2,0.6-0.5
		C3,406.5,2.6,406.6,2.3,406.5z"/>
	<path class="st0" d="M594.1,398.1c-1.1,1-1.1,2.1-0.4,3.2c0.1,0.2,0.4,0.5,0.1,0.8c-0.3,0.4-0.6,0-0.8-0.2
		c-0.8-0.5-1.5-0.6-2.2,0.2c-0.2,0.3-0.6,0.6-0.9,0.4c-0.3-0.2-0.2-0.6-0.1-0.9c0.5-1.4-1.1-1.2-1.6-1.9c0.1-0.1,0.2-0.3,0.3-0.3
		c1.1-0.5,1.9-1.2,2-2.5c0-0.5,0.4-0.9,0.7-0.2C591.8,398,592.8,398.3,594.1,398.1z"/>
	<path class="st0" d="M47.5,427.3c-0.5,0.7-1.1,0.9-1.8,0.6c-0.6-0.3-0.8-1.3-0.5-1.9c0.4-0.7,1.2-0.8,1.9-0.4
		C47.8,426,47.9,426.6,47.5,427.3z"/>
	<path class="st0" d="M8.4,417.9c-0.4-0.5-0.3-0.7-0.1-0.9c0.1-0.2,0.4-0.3,0.6-0.2c1.1,0.5,2.1,1,3.2,1.5c0.3,0.1,0.3,0.3,0.2,0.6
		c-0.1,0.2-0.1,0.7-0.5,0.6C10.5,419,9.3,418.4,8.4,417.9z"/>
</g>
<g id="Layer_14">
	<g>
		<path class="st0" d="M234,411.9c-0.3,0.6-0.7,1.2-1.1,1.8c-0.6,0.9-1.3,1.8-2.1,2.6c-1.2,1.2-2.8,1.8-4.5,1.7
			c-0.3,0-0.6-0.1-0.8-0.3c-0.6-0.4-1.3-0.8-1.9-1.3c-1.1-0.8-1.7-2-2.1-3.3c-0.7-2.3-1.2-4.6-1.1-7c0.1-2,0.5-4,1.5-5.8
			c0.1-0.2,0.2-0.5,0.3-0.7c1-2.2,2.7-3.7,5.1-4.4c0.8-0.3,1.7-0.2,2.6,0.1c0.7,0.2,1.2,0.7,1.5,1.4c0.6,1.3,0.6,2.6,0.1,4
			c-0.1,0.3-0.3,0.6-0.6,0.8c-0.3,0.1-0.6,0.2-0.8,0c-0.3-0.3-0.3-0.6-0.1-0.9c0.5-0.9,0.6-1.8,0.3-2.7c-0.2-0.7-0.7-1.1-1.4-1.2
			c-0.5-0.1-1,0-1.5,0.2c-1.8,0.7-2.9,2.1-3.7,3.8c-0.9,1.9-1.3,3.9-1.4,5.9c-0.1,1.4,0.2,2.8,0.5,4.1c0.2,1,0.5,2,0.9,2.9
			c0.6,1.2,1.5,1.9,2.6,2.5c0.8,0.4,1.7,0.2,2.4-0.2s1.2-0.9,1.8-1.4c1.4-1.5,2.1-3.4,2.8-5.3c0.1-0.3,0.1-0.7,0.1-1
			c-0.4-2-0.5-4.1-0.6-6.2c-0.1-1.4-0.1-2.8-0.1-4.1c-0.1-2.6,0.2-5.1,0.2-7.7c0-2.8,0.2-5.6,0.3-8.5c0.1-1.6,0.1-3.2,0.3-4.7
			c0.3-1.7,0.3-3.4,0.7-5.1c0.3-1.1,0.3-2.3,0.7-3.3s1-1.8,2.1-2c0.7-0.2,1.2,0,1.5,0.6c0.3,0.5,0.5,1.1,0.6,1.7
			c0.2,1.4,0.5,2.9,0.4,4.4c-0.1,1.1,0.2,2.2,0.1,3.3c-0.2,1.8,0,3.5-0.1,5.3c-0.1,1.4-0.2,2.7-0.3,4.1c0,0.5,0,0.9,0,1.4
			c0.1,1.8-0.3,3.5-0.4,5.3c-0.1,1.5-0.3,2.9-0.6,4.4c-0.3,1.9-0.8,3.7-1.2,5.6c-0.3,1.2-0.6,2.5-1.1,3.7c-0.2,0.6-0.4,1.2-0.6,1.9
			c-0.3,0.9-0.2,1.7,0.3,2.4c0.2,0.4,0.2,0.8,0.4,1.2c0.5,1.6,1.2,3.1,2.7,4c0.9,0.6,1.7,0.9,2.7,0.7c1.1-0.2,2.1-0.6,3-1.4
			c0.6-0.6,1.1-1.3,1.5-2.1c0.7-1.5,1.4-2.9,2-4.5c1-2.5,1.7-5,2.1-7.6c0.1-0.8,0.3-1.7,0.5-2.5c0.1-0.5,0-0.8-0.3-1.2
			c-0.7-0.8-1.3-1.6-1.7-2.6c-0.3-0.8-0.5-1.5-0.3-2.4c0.3-1.1,1.6-1.7,2.5-1.2c0.5,0.3,0.8,0.6,1,1.1c0,0.1,0.1,0.1,0.1,0.2
			c0.3,1.3,0.8,2.5,0.7,3.8c-0.1,0.7,0.2,1.1,0.7,1.6c1.5,1.5,2.9,3,4.4,4.6c0.7,0.7,1.3,1.4,1.5,2.4c0.3,1.2,0.2,2.4-0.2,3.6
			c-0.6,1.7-1.2,3.4-1.4,5.2c-0.1,0.6,0.1,1.1,0.2,1.6c0.8,2.8,3.4,3.5,5.3,3.1c0.4-0.1,0.8-0.2,1.2-0.4c1.4-0.5,2.8-1.1,4.2-1.8
			c1.1-0.6,2.1-1.3,2.9-2.2c0.4-0.4,0.9-0.9,1.3-1.3c0.6-0.5,0.9-1,0.7-1.9c-0.3-1-0.3-2-0.1-3.1c0-0.2,0-0.5,0.1-0.7
			c0.6-1.5,0.8-3.2,1.4-4.7c0.4-1.2,1-2.2,1.7-3.3c0.8-1.2,1.6-2.4,2.7-3.3c0.7-0.6,1.4-1.2,2.2-1.7c0.8-0.6,1.9-0.7,2.9-0.6
			c1,0.1,1.5,1.1,1.4,2.3c-0.1,1.5-0.4,2.9-1.1,4.2c-0.6,1.2-1.4,2.3-2.1,3.5c-1.4,2.3-3.1,4.4-4.6,6.6c-0.4,0.6-0.9,1.2-1.4,1.8
			c-0.6,0.8-0.6,1,0,1.8c0.5,0.8,1.2,1.4,2.1,1.7c0.4,0.1,0.8,0.3,1.2,0.5c0.9,0.5,1.8,0.6,2.8,0.5c0.9-0.1,1.8-0.2,2.7-0.3
			c0.4-0.1,0.7-0.2,1-0.3c1-0.5,2-1,3-1.7c0.7-0.5,1.3-1.1,1.8-1.8c0.8-1,1.6-2,2.4-3c0.4-0.4,0.6-0.9,0.9-1.4
			c0.9-1.6,1.7-3.1,2.7-4.7c0.4-0.6,0.8-1.3,0.9-2.1c0.1-0.5,0.2-1.1,0.4-1.6c0.2-0.4,0.1-0.8-0.3-1.2c-1.2-1.1-2-2.6-2.7-4
			c-0.6-1.4-0.5-2.2,0.6-3.1c0.1-0.1,0.1-0.1,0.2-0.2c1-1.1,1.6-1.2,2.7-0.2c1,0.8,1.6,1.9,1.7,3.2c0.1,1.2,0.3,2.3,0,3.5
			c-0.1,0.4,0.1,0.7,0.3,0.9c0.7,0.7,1.3,1.4,2,2.1c0.3,0.3,0.5,0.6,0.6,0.9c1.4,2.7,2.3,5.4,2.7,8.4c0.2,1.7,0.2,3.4-0.1,5
			c-0.1,0.6,0,0.7,0.6,0.6c1-0.2,1.9-0.7,2.9-1.1c1.4-0.7,2.7-1.7,3.9-2.7c1.7-1.3,3.2-2.8,4.4-4.6c0.4-0.7,1-1.3,1.4-2
			c1.2-1.8,1.7-3.7,2.2-5.7c0.2-0.7,0-1.3-0.6-1.7c-0.6-0.5-1.1-1-1.6-1.6c-1-1.2-1.5-2.5-1.2-4.1c0.2-1.2,1.4-1.9,2.6-1.6
			c1.1,0.3,1.7,1.1,2.2,2c0.4,0.8,0.5,1.7,0.5,2.5c0,0.7,0.1,1.3,0.1,2c0,0.3,0.1,0.5,0.3,0.7c1.4,1.4,2.4,3,3.4,4.7
			c1.1,1.9,1.9,3.8,2.4,5.9c0.1,0.3,0.1,0.6,0.1,1c-0.1,1.4,0,2.8-0.1,4.2c-0.1,0.6,0.1,0.7,0.7,0.6c1.3-0.2,2.5-0.7,3.7-1.2
			c1.6-0.7,3.3-1.4,4.9-2.1c0.6-0.3,1-0.7,1.1-1.4c0.1-0.5,0.2-1,0.2-1.5c0.1-1.5,0.8-2.9,1.4-4.2c0.7-1.8,1.6-3.4,2.8-5
			c0.3-0.4,0.7-0.7,1-1.1c1.1-1.1,2.1-2.2,3.4-3c0.3-0.2,0.5-0.4,0.8-0.5c0.9-0.3,1.6,0.1,2,1c0.4,1,0.2,1.9-0.2,2.8
			c-0.4,1-1,2-1.6,3c-1,1.5-2,3-3.1,4.5c-0.7,0.9-1.4,1.9-2.2,2.8c-0.8,0.9-1.6,1.8-2.5,2.5c-0.6,0.5-0.7,1.1-0.5,1.8
			c0.2,0.7,0.4,1.3,0.7,2c0.7,1.5,2,2.2,3.6,2.4c2.3,0.2,4.4-0.5,6.2-1.9c2.7-2.1,5-4.7,7.2-7.3c1.7-2.1,3.2-4.3,4.8-6.5
			c0.9-1.3,2-2.5,3.3-3.5c1.1-1,2.5-1.5,4-1.5c1.3,0,2.2,0.6,3.1,1.4c0.2,0.2,0.3,0.4,0.4,0.7c0.2,0.7,0.2,1.4,0.1,2.1
			c-0.1,0.5-0.3,0.7-0.8,0.6c-0.5,0-0.7-0.2-0.8-0.7c0-0.1,0-0.2,0-0.3c-0.1-1-0.7-1.7-1.7-1.8c-1.6-0.2-2.8,0.5-3.9,1.6
			c-0.9,1-1.6,2.1-2.4,3.2c-0.4,0.6-0.7,1.3-1,2c-1,2.5-1.5,5.1-1.1,7.8c0.1,1.1,0.6,2.1,1.3,3c0.5,0.6,1.2,0.9,2,0.8
			c1.1-0.2,2-0.8,2.9-1.5c1.3-0.9,2.3-2,3.2-3.3c0.3-0.5,0.6-1,0.9-1.5c0.7-1.2,1.4-2.4,2-3.6c0.2-0.4,0.4-0.8,0.4-1.3
			c0-0.6,0.1-1.1,0.1-1.7c-0.2-2.3,0.2-4.7,0.4-7c0.1-1.4,0.2-2.8,0.3-4.1c0.1-2.2,0.4-4.3,0.5-6.5c0.1-2.1,0.5-4.3,0.5-6.4
			c0-1.7,0.3-3.4,0.4-5.1c0.1-1.4,0.1-2.8,0.2-4.2c0-0.6,0.2-1.2,0.4-1.8c0.3-0.7,0.8-1.1,1.5-1.2c0.8-0.1,1.3,0.3,1.7,0.9
			c0.6,0.9,0.9,1.9,1,3.1c0,1.2,0.2,2.4,0.3,3.6c0.1,1.2,0,2.4,0,3.6c-0.1,3.5-0.8,7-1.4,10.5c-0.5,2.9-1.1,5.8-1.8,8.7
			c-0.2,0.9-0.3,1.9-0.5,2.8c-0.4,1.5-0.8,3-1.4,4.4c-0.5,1.3-0.6,2.8-0.6,4.2c0,1.1,0.1,2.3,0.2,3.4c0.1,1.4,0.6,2.6,1.2,3.8
			c0.3,0.6,0.9,1.2,1.7,1.3c0.5,0.1,1,0.2,1.4,0.3c1.6,0.4,2.8-0.3,3.9-1.2c1.5-1.3,2.7-2.8,3.7-4.5c0.3-0.5,0.5-0.9,0.8-1.4
			c0.5-0.8,0.9-1.7,1.2-2.7c0.1-0.4,0.2-0.8,0.6-1c0.4-0.3,0.6-0.2,0.9,0.2c0.5,0.8,0.5,0.8,0.2,1.6c-0.8,2.2-2,4.2-3.3,6
			c-0.7,1-1.6,2-2.5,2.9c-1.8,1.8-4,2.4-6.5,1.7c-0.7-0.2-1.4-0.3-2.1-0.7c-1.1-0.7-1.7-1.7-2.2-2.9c-0.6-1.4-1-2.9-0.9-4.4
			c0-0.3,0.1-0.8-0.2-0.9c-0.4-0.1-0.4,0.4-0.6,0.7c-1,1.6-1.9,3.3-3.4,4.5c-1,0.8-2,1.7-3.2,2.3c-1,0.4-2,0.7-3.1,0.5
			c-1.6-0.4-2.7-1.4-3.2-3c-0.7-2.2-1-4.4-0.6-6.7c0-0.1,0-0.2,0-0.2c0-0.1,0-0.3-0.2-0.3c-0.1,0-0.2,0.1-0.3,0.1
			c-0.4,0.7-1,1.2-1.5,1.8c-2,2.2-4,4.4-6.3,6.3c-1.8,1.5-3.8,2.2-6.1,2.4c-2.1,0.1-3.9-0.4-5.5-1.9c-0.4-0.4-0.7-0.8-0.9-1.2
			c-0.3-0.8-0.7-1.5-1-2.3c-0.2-0.7-0.3-0.7-0.9-0.5c-1,0.4-2,0.9-3,1.4c-1.2,0.6-2.5,1.1-3.8,1.6c-0.5,0.2-1,0.3-1.6,0.3
			c-0.9,0-1.4,0.4-1.7,1.3c-0.4,1.1-1,2-1.9,2.7c-0.7,0.6-1.4,1.3-2.4,1.6c-0.7,0.2-1.3,0.3-2,0.2c-0.8-0.1-1.6-0.4-2.3-0.8
			c-1.7-1.1-1.7-3.2-0.1-4.3c1-0.7,2.1-1.2,3.4-1.3c1.3-0.1,2.6-0.5,3.8-0.8c0.4-0.1,0.5-0.3,0.5-0.6c0.1-0.6,0.1-1.2,0.2-1.9
			c0.3-2.4-0.1-4.6-1.2-6.7c-0.7-1.4-1.4-2.7-2.4-4c-0.2-0.3-0.4-0.5-0.7-0.8c-0.4-0.3-0.5-0.3-0.7,0.2c-0.2,0.6-0.4,1.2-0.5,1.8
			c-0.6,2-1.6,3.6-2.9,5.3c-0.8,1-1.6,2.1-2.4,3.1s-1.8,1.8-2.9,2.6c-1.1,0.8-2.2,1.6-3.4,2.3c-1.5,0.9-3,1.8-4.8,1.8
			c-0.4,0-0.8,0.1-1,0.5c-0.5,0.8-1.3,1.3-2,1.8c-0.6,0.4-1.4,0.8-2.1,1.1c-1.4,0.5-2.8,0.5-4.2,0c-0.8-0.3-1.5-0.6-2.1-1.2
			c-1-1.1-1-3.3,0.9-4.3c1.8-0.9,3.6-0.8,5.4-0.5c0.7,0.1,1.4,0.3,2.1,0.5c0.9,0.2,1.1,0.1,1.2-0.8c0.3-1.8,0.2-3.6,0-5.4
			c-0.2-1.4-0.6-2.7-1-4c-0.4-1.3-1.1-2.6-1.9-3.7c-0.2-0.2-0.4-0.4-0.6-0.6c-0.5-0.4-0.8-0.4-0.9,0.3c-0.4,1.9-1.5,3.5-2.5,5.1
			c-0.5,0.9-1.1,1.7-1.6,2.7c-0.1,0.1-0.1,0.3-0.2,0.4c-1.2,1.5-2.2,3-3.5,4.4c-1,1-2.1,2-3.3,2.8c-1.8,1.2-3.7,1.7-5.8,1.8
			c-1,0-2-0.1-3-0.4c-1-0.4-2-0.6-2.9-1.2c-0.7-0.5-1.3-1-1.8-1.7c-0.4-0.7-0.5-0.6-1.1-0.1c-1.4,1.1-2.8,2.3-4.4,3.1
			c-1.7,0.9-3.3,1.7-5.2,2.2c-1.7,0.5-3.3,0.3-4.9-0.3c-1.9-0.8-3.9-3.8-3.4-6.3c0.4-1.8,0.9-3.6,1.5-5.3c0.1-0.4,0.2-0.8,0.3-1.3
			c0.1-1-0.1-1.9-0.8-2.7c-0.3-0.4-0.7-0.8-1.1-1.2c-1.1-1.1-2-2.3-3.2-3.2c-0.5-0.4-0.5-0.3-0.7,0.2c-0.1,0.3-0.1,0.7-0.2,1
			c-0.2,1.4-0.5,2.7-0.9,4c-0.6,2-1.3,4-2.2,5.9c-0.5,1-0.9,1.9-1.3,2.9c-0.2,0.4-0.4,0.7-0.6,1c-0.2,0.3-0.5,0.5-0.7,0.8
			c-1.6,2-3.7,2.9-6.2,2.6c-1.6-0.2-3-1.1-3.9-2.5c-0.6-1-1.2-2.1-1.6-3.2C234.3,412.1,234.2,411.9,234,411.9z M234.6,404.6
			c0.3-0.7,0.5-1.3,0.6-1.8c0.6-2.6,1.2-5.1,1.6-7.7c0.4-2.6,0.8-5.3,0.7-7.9c0-0.8,0-1.6,0.1-2.4c0.2-1.9,0.2-3.8,0.3-5.7
			c0.1-2.1,0-4.2-0.1-6.3c-0.1-1.3-0.2-2.5-0.4-3.7c0-0.2-0.1-0.4-0.1-0.6c-0.1-0.3-0.3-0.3-0.5-0.1c-0.3,0.3-0.5,0.7-0.6,1
			c-0.2,1-0.5,2-0.6,3c-0.1,1.2-0.3,2.5-0.4,3.7c-0.4,2.6-0.3,5.3-0.5,8c-0.2,2.6-0.2,5.2-0.2,7.7c0,1.4-0.2,2.8-0.2,4.1
			c0,2-0.1,3.9,0.1,5.9C234.3,402.7,234.3,403.5,234.6,404.6z M274.8,408.6L274.8,408.6c0,0.5-0.1,0.9,0.3,1.1
			c0.4,0.1,0.6-0.3,0.8-0.6c1-1.2,1.9-2.4,2.8-3.6c1.4-1.7,2.4-3.6,3.6-5.4c0.6-1,1-2.1,1.3-3.3c0.1-0.3,0.1-0.5,0.1-0.8
			c-0.1-0.6-0.5-0.8-1.1-0.6c-0.9,0.3-1.6,0.7-2.3,1.4c-0.8,0.9-1.6,1.8-2.3,2.7c-0.8,1.1-1.4,2.2-1.9,3.5c-0.3,0.8-0.3,1.7-0.7,2.4
			C275.1,406.4,274.9,407.5,274.8,408.6z M378,397.8c0.7-2.2,1-4.4,1.5-6.7c0.6-2.9,1-5.9,1.5-8.9c0.2-1.3,0.4-2.7,0.4-4
			c0.1-2.1-0.1-4.2-0.2-6.3c0-0.7-0.2-1.5-0.3-2.2c0-0.3-0.1-0.5-0.3-0.7c-0.2-0.2-0.4-0.2-0.5,0c-0.2,0.3-0.3,0.6-0.3,0.9
			c0,1.6-0.2,3.2-0.3,4.9c0,1.9-0.3,3.7-0.4,5.6c-0.1,1.5-0.3,2.9-0.3,4.4c-0.1,1.1,0,2.3-0.2,3.4c-0.1,1-0.2,2-0.3,3
			c0,1.3-0.2,2.7-0.2,4c0,0.2,0,0.4-0.1,0.6C377.9,396.5,378,397.2,378,397.8z M342.1,407.2c0,0.1,0,0.3,0.1,0.4s0.3,0,0.4-0.1
			s0.3-0.3,0.4-0.4c0.5-0.6,1-1.1,1.5-1.7c1.3-1.6,2.4-3.4,3.5-5.1c0.7-1,1.3-2.1,1.8-3.2c0.1-0.3,0.3-0.6,0.3-1s-0.2-0.5-0.5-0.3
			c-0.2,0.1-0.3,0.2-0.4,0.4c-1.1,0.7-1.8,1.8-2.8,2.6c-0.5,0.5-1.2,1-1.5,1.7c-0.5,1.1-1.2,2-1.6,3.1c-0.1,0.5-0.4,0.9-0.6,1.3
			C342.4,405.6,342.1,406.3,342.1,407.2z M298.6,416.3c-0.8-0.1-1.6,0.1-2.3,0.4c-0.8,0.3-0.9,1-0.3,1.6c0.2,0.2,0.5,0.5,0.8,0.6
			c2.3,0.8,4.2,0.5,5.9-1.2c0.4-0.4,0.3-0.6-0.2-0.7C301.2,416.6,299.9,416.3,298.6,416.3z M323.1,419.9c0.5,0.1,0.9-0.1,1.2-0.4
			c0.5-0.4,1-0.8,1.5-1.3c0.4-0.4,0.7-0.8,0.9-1.3c0.2-0.5,0-0.7-0.5-0.6c-1.2,0.2-2.4,0.4-3.6,0.7c-0.5,0.1-0.9,0.3-1.4,0.5
			c-0.8,0.4-0.8,1.3,0,1.8C321.8,419.6,322.4,419.9,323.1,419.9z M298.8,394.8c0.1-0.9-0.3-1.6-0.8-2.4c-0.2-0.3-0.4-0.6-0.8-0.6
			c-0.2,0-0.5,0.6-0.4,1.1c0,0.1,0,0.1,0,0.2c0.3,1,0.9,1.9,1.5,2.8c0.1,0.1,0.2,0.2,0.4,0.2c0.1,0,0.2-0.2,0.2-0.3
			C298.8,395.4,298.8,395.2,298.8,394.8z M321.5,394.8c0-0.9-0.2-1.6-0.6-2.3c-0.3-0.5-0.6-0.7-0.9-0.5c-0.4,0.2-0.3,0.6-0.3,0.9
			c0.1,0.9,0.6,1.7,1.2,2.3c0.3,0.2,0.4,0.2,0.5-0.2C321.5,395,321.5,394.8,321.5,394.8z M250.7,394.6c0.1-0.7-0.1-1.3-0.4-2
			c0,0-0.1-0.1-0.2-0.1c-0.1,0-0.2,0.1-0.2,0.2C250,393.5,250.1,394.1,250.7,394.6z"/>
		<path class="st0" d="M136,404.2c-0.3,0.2-0.3,0.4-0.3,0.6c-0.3,2.7-1.2,5.3-2.1,7.9c-0.6,1.6-1.2,3.1-2,4.6
			c-0.3,0.6-0.8,1.2-1.2,1.8c-0.2,0.3-0.5,0.5-0.9,0.4s-0.5-0.4-0.6-0.7c0-0.4-0.3-0.8-0.5-1.1c-2.2-2.8-3.4-6.1-4.6-9.4
			c-0.3-0.9-0.4-1.9-0.7-2.7c-0.3,0-0.3,0.2-0.4,0.4c-0.5,1.9-1.4,3.6-2.2,5.4c-0.7,1.5-1.5,2.9-2.5,4.1c-0.7,0.8-1.5,1.4-2.3,2.2
			c-0.4,0.5-0.9,0.8-1.4,1.2c-0.5,0.4-0.9,0.3-1.3-0.2c-0.1-0.2-0.2-0.3-0.3-0.5c-0.9-1.4-1.7-2.8-2.4-4.3c-0.8-1.7-1.4-3.5-2-5.3
			c-0.7-2.2-0.9-4.5-0.8-6.8c0-1.2,0.1-2.4,0.3-3.6c0-0.1,0-0.2,0-0.2c0.1-1-0.1-1-0.9-0.7c-2.5,1.1-4.9,0.7-7.4-0.2
			c-0.8-0.3-1.5-0.7-2.2-1.1c-1.9-1.2-3.9-2.3-5.8-3.5c-0.8-0.5-1.6-0.8-2.2-1.5c-0.5-0.5-1.2-0.7-1.9-1c-0.7-0.3-1.4-0.5-2.1-0.8
			c-1.2-0.5-2.4-0.5-3.7-0.4c-1,0.1-1.9,0.6-2.7,1.3c-0.6,0.6-0.9,1.3-0.6,2.2c0.3,0.8,0.9,1.2,1.7,1.3c0.5,0.1,1,0.1,1.4-0.2
			c0.5-0.3,1-0.1,1.2,0.3c0.2,0.4,0,0.9-0.4,1.2c-0.6,0.4-1.3,0.6-2.1,0.4c-1-0.2-1.9-0.6-2.6-1.3c-0.9-0.9-1.3-2-1-3.2
			c0.2-0.9,0.7-1.6,1.4-2.2c0.5-0.4,0.9-0.8,1.4-1.1c0.3-0.2,0.6-0.3,1-0.4c2.3-0.4,4.4-0.1,6.5,0.7c1.6,0.7,3.1,1.5,4.5,2.4
			c2,1.3,4,2.4,6,3.7c0.3,0.2,0.6,0.4,0.9,0.6c1.6,1.1,3.4,1.7,5.3,1.8c1.5,0.1,2.9-0.2,4.1-1.1c0.5-0.3,0.9-0.7,1.2-1.2
			c0.3-0.5,0.7-0.6,1-0.4c0.4,0.2,0.5,0.5,0.4,1c-0.6,2.2-0.8,4.5-1,6.8c-0.2,2.8,0.2,5.4,1,8c0.7,2,1.4,3.9,2.3,5.7
			c0.3,0.5,0.7,1,1,1.5c0.3,0.4,0.7,0.4,1.1,0.1c1.8-1.5,3.4-3.3,4.3-5.4c0.9-2,1.8-3.9,2.4-6c0.3-1.1,0.6-2.2,0.8-3.3
			c0.2-0.8,0.2-1.7,0.4-2.6c0.1-0.3,0.1-0.6,0.4-0.9c0.3-0.4,0.6-0.4,1,0c0.2,0.2,0.3,0.5,0.3,0.8c0,0.4,0,0.8,0,1.2
			c0,3.2,0.6,6.4,1.8,9.4c0.8,2.1,1.8,4.2,3,6.1c0.2,0.3,0.3,0.5,0.6,0.7c0.3,0.4,0.5,0.3,0.7-0.1c0.9-1.7,1.5-3.4,2.2-5.2
			c0.6-1.5,1-2.9,1.3-4.4c0.4-1.8,0.6-3.7,0.5-5.5c0-0.8-0.4-1.5-0.5-2.3c-0.2-0.9-0.2-1.8-0.4-2.7c-0.1-0.5,0.1-0.8,0.4-0.9
			c0.3-0.1,0.7,0,1,0.4c0.3,0.5,0.5,1.1,0.7,1.7c0.2,0.8,0.3,1.6,0.4,2.4c0.1,1.5,0.9,2.8,1.9,3.9c0.2,0.2,0.5,0.4,0.7,0.7
			c1,1.1,2.4,1.5,3.8,1.7c1,0.1,2.1,0.1,3.1,0c0.5-0.1,0.8-0.2,0.9-0.7c0.3-0.9,0.5-1.8,0.9-2.6c0.7-2,1.7-3.9,3.2-5.4
			c1-1.1,2.2-1.9,3.6-2.4c0.4-0.2,0.9-0.2,1.4-0.2c1.5,0,2.5,1.2,2.2,2.7c-0.3,1.4-0.9,2.6-1.7,3.7c-1.5,2.1-3.4,3.6-5.6,4.9
			c-0.6,0.3-1.2,0.6-1.8,0.9c-0.5,0.2-0.7,0.6-0.7,1.1c0,2.2,0.5,4.3,2,6.1c1.2,1.4,2.7,2.3,4.5,2.8c1.2,0.3,2.4,0.6,3.7,0.4
			c1.4-0.2,2.7-0.8,3.8-1.7c1.9-1.4,3.7-3,5.4-4.7c0.8-0.8,1.4-1.8,1.1-3.1c-0.2-1.1,0-2.3,0-3.4s-0.1-2.3-0.2-3.4
			c-0.1-0.6,0.1-1.2,0.1-1.9c0-2.1-0.1-4.1,0-6.2c0.2-2.3,0.2-4.6,0.6-6.9c0.2-1.3,0.3-2.5,0.3-3.8c0.1-3,0.5-6,0.8-8.9
			c0.1-1,0.2-1.9,0.4-2.9c0.1-0.7,0.4-1.4,0.9-2c0.7-1,1.8-1,2.6-0.1c0.6,0.6,0.9,1.4,1,2.2c0.2,1.8,0.4,3.6,0.6,5.4
			c0.1,1.5,0.3,3,0.3,4.6c-0.1,2.4-0.1,4.7-0.2,7.1c0,1.4-0.3,2.8-0.5,4.2c-0.2,1.3-0.3,2.7-0.5,4c-0.3,1.6-0.5,3.3-0.8,4.9
			c-0.3,1.7-0.8,3.3-1.3,4.9c-0.4,1.3-1,2.4-1.6,3.6c-0.2,0.3-0.3,0.6-0.3,1c0.1,1.6,0.5,3.1,1.5,4.4c0.6,0.8,1.3,1.4,2,2
			c1,0.8,2.1,1,3.3,1.1c0.7,0.1,1.4-0.3,2-0.6c1.3-0.7,2.2-1.8,2.9-3.1c0.3-0.6,0.6-1.2,0.9-1.8c0.6-1.3,1.1-2.7,0.9-4.2
			c-0.2-1.1-0.1-2.3-0.1-3.4c0.1-1.7-0.1-3.4-0.1-5c0-2.2,0.1-4.4,0-6.6c-0.1-1.6-0.1-3.2,0-4.8c0.1-1.8,0.3-3.6,0.5-5.4
			c0.2-2.5,0.4-5,0.8-7.5c0.2-1.2,0.2-2.4,0.5-3.5c0.1-0.6,0.3-1.1,0.6-1.7c1-1.5,2.2-1.4,3.2,0.1c0.3,0.4,0.4,0.9,0.4,1.4
			c0.1,1.3,0.2,2.5,0.3,3.8c0.1,0.8,0.1,1.5,0.2,2.3c0.2,1.9,0,3.7-0.1,5.6c0,1.3-0.1,2.6-0.1,3.9c0.1,1.6-0.1,3.3-0.3,4.9
			c-0.2,2.6-0.7,5.2-1.1,7.8c-0.2,1.4-0.3,2.8-0.7,4.1c-0.5,1.7-1.1,3.4-1.8,5.1c-0.3,0.8-0.4,1.6-0.3,2.5c0.3,1.7,1,3.3,1.7,4.9
			c0.2,0.4,0.4,0.6,0.7,0.9c1.7,1.2,3.6,2,5.8,1.8c1.4-0.1,2.6-0.6,3.8-1.4c0.8-0.6,1.5-1.3,1.9-2.2c0.6-1.1,1.2-2.1,1.8-3.2
			c0.3-0.5,0.3-1,0.5-1.5c0.1-0.5,0.3-0.6,0.7-0.6c0.5,0.1,0.9,0.4,0.8,0.8c0,0.4-0.1,0.7-0.3,1c-0.9,1.6-1.7,3.3-2.6,4.9
			c-0.6,1-1.5,1.7-2.5,2.3c-2.3,1.4-4.7,1.9-7.3,1.1c-0.9-0.3-1.7-0.6-2.5-1c-1-0.5-1.7-1.3-2.2-2.2s-1-1.9-1.3-2.9
			c0-0.2-0.1-0.3-0.2-0.5c-0.1-0.2-0.1-0.4-0.3-0.4c-0.3,0-0.4,0.2-0.5,0.4c-0.5,1-1,2-1.7,3c-1.3,1.7-3,2.6-5,3
			c-0.9,0.2-1.7-0.2-2.5-0.4c-1.5-0.4-2.6-1.3-3.6-2.4s-1.8-2.3-2.2-3.7c-0.2-0.7-0.4-0.7-1-0.4c-0.1,0.1-0.2,0.1-0.3,0.2
			c-1.4,1.3-2.9,2.5-4.5,3.7c-1.8,1.4-3.9,2.4-6.2,2.6c-0.7,0.1-1.5-0.1-2.2-0.2c-1.4-0.3-2.8-0.8-4-1.6c-1.8-1.1-3.3-2.5-4.1-4.5
			c-0.5-1.3-0.9-2.5-0.9-3.9c0-0.1,0-0.3,0-0.4c-0.1-0.7-0.2-0.8-0.9-0.8c-1.2,0.1-2.4,0-3.7-0.2c-1.7-0.2-3-1-4.2-2.1
			C136.6,404.8,136.3,404.5,136,404.2z M173.8,380.3c-0.1-1.2,0-2.2-0.1-3.1c-0.2-2-0.4-4-0.6-6c0-0.5-0.2-1-0.5-1.4
			c-0.1-0.2-0.3-0.2-0.4,0c-0.2,0.5-0.4,1-0.4,1.6c-0.3,1.9-0.5,3.7-0.7,5.6c-0.2,2.8-0.4,5.7-0.7,8.5c-0.3,2.4-0.4,4.8-0.5,7.2
			c-0.2,2.8-0.1,5.6,0,8.5c0,1.5,0.2,2.9,0,4.4c0,0.1,0,0.3,0,0.4c0.1,0.2,0.2,0.3,0.4,0.1c0.1-0.1,0.2-0.2,0.2-0.3
			c0.4-1.5,0.9-2.9,1.3-4.4c0.3-1.5,0.5-2.9,0.7-4.4c0.4-2.6,0.8-5.2,1-7.8C173.8,386,173.7,383,173.8,380.3z M185.4,405.1
			c0.2-0.1,0.3-0.3,0.4-0.5c0.3-1,0.6-2,0.8-3c0.4-2.3,0.7-4.7,1.1-7c0.4-2.4,0.5-4.9,0.6-7.3c0-0.6,0-1.2,0-1.9c0.1-3,0.3-6,0.1-9
			c0-0.6-0.1-1.1-0.1-1.7c0-1.1-0.2-2.2-0.3-3.3c0-0.3-0.1-0.5-0.1-0.8c0-0.2-0.1-0.3-0.3-0.3s-0.3,0.1-0.4,0.2
			c-0.2,0.3-0.3,0.6-0.4,1c-0.3,1.3-0.3,2.6-0.5,3.9c-0.2,1.1-0.3,2.2-0.4,3.2c-0.2,1.7-0.2,3.4-0.4,5.1c-0.3,3.6-0.6,7.1-0.5,10.7
			c0,3.3,0,6.6,0.2,9.9C185.2,404.6,185.2,404.9,185.4,405.1z M154.8,396c0,0-0.2,0-0.3,0s-0.3,0.1-0.4,0.1
			c-1.4,0.6-2.4,1.6-3.3,2.8c-1,1.2-1.6,2.7-2.2,4.2c-0.1,0.3-0.2,0.7-0.3,1.1c-0.1,0.3,0.1,0.4,0.4,0.3c0.5-0.2,0.9-0.4,1.3-0.7
			c0.9-0.6,1.7-1.3,2.5-2c1-0.8,1.8-1.9,2.5-3c0.3-0.6,0.7-1.2,0.8-2C155.7,396.2,155.5,396,154.8,396z"/>
		<path class="st0" d="M419.6,396.7c-0.3,0.2-0.3,0.5-0.4,0.7c-0.5,2.1-1.2,4.2-1.7,6.3c-0.3,1.3-0.8,2.5-1.1,3.8
			c-0.4,2-1.1,3.9-1.6,5.9c-0.4,1.3-0.8,2.6-1.2,3.9c0,0.1-0.1,0.3-0.1,0.4c-0.1,0.3-0.3,0.5-0.6,0.6c-0.4,0-0.5-0.2-0.7-0.5
			c-0.4-0.7-0.6-1.6-0.8-2.4c-0.5-1.8-1-3.7-1.5-5.5c-0.4-1.5-0.6-3-0.9-4.5c-0.2-1.5-0.7-2.9-1-4.4c-0.4-1.9-0.7-3.9-1.1-5.8
			c-0.6-2.8-1.2-5.6-1.9-8.3c-0.2-0.8-0.3-0.8-1.1-0.9c-0.6,0-1.2-0.1-1.9-0.2c-0.1,0-0.3,0-0.4-0.1c-0.2-0.1-0.3-0.3-0.3-0.5
			c0-0.2,0.2-0.3,0.4-0.3c0.4,0,0.8,0,1.2,0c1.7,0.1,3.4,0.3,5,0.2c0.3,0,0.7,0,1,0.1c0.2,0,0.3,0.2,0.4,0.4c0,0.3-0.1,0.4-0.3,0.5
			c-0.2,0.1-0.4,0.1-0.6,0.1c-0.4,0-0.8,0-1.1,0c-0.4,0-0.5,0.1-0.4,0.6c0,0.1,0.1,0.3,0.1,0.4c0.7,2.1,1,4.3,1.5,6.5
			c0.5,2.4,1,4.9,1.5,7.4s1.1,5.1,1.6,7.6c0.4,1.9,0.9,3.7,1.4,5.5c0,0.1,0.1,0.1,0.1,0.2c0.3-0.1,0.3-0.3,0.3-0.5
			c0.6-2,1.2-4,1.7-6.1c0.2-1,0.5-2,0.8-3c0.7-2.4,1.4-4.7,2-7.1c0.6-2.6,1.5-5.2,2.2-7.9c0.4-1.5,0.9-2.9,1.3-4.4
			c0-0.1,0-0.2,0.1-0.2c0.1-0.3,0.3-0.5,0.7-0.4c0.4,0.1,0.6,0.4,0.5,0.8c-0.2,0.9-0.5,1.8-0.8,2.7c-0.3,1-0.6,2.1-1,3.1
			s-0.3,1.9,0.1,2.8c0.7,1.9,1.4,3.8,2,5.7c1,3.1,2.1,6.2,3.2,9.3c0.5,1.3,0.8,2.7,1.3,4c0.1,0.3,0.2,0.6,0.5,0.9
			c0.3-0.8,0.5-1.5,0.6-2.2c0.3-2,0.8-4,1.3-6c0.6-2.7,1.3-5.5,1.7-8.2c0.5-3.2,1.3-6.3,1.9-9.4c0.1-0.5,0.2-1,0.3-1.5
			c0.1-0.4-0.1-0.6-0.5-0.6c-0.5,0-0.9-0.1-1.4-0.1c-0.2,0-0.3,0-0.5-0.1s-0.4-0.2-0.4-0.5s0.2-0.4,0.4-0.4c0.2,0,0.3-0.1,0.5,0
			c1.6,0.1,3.2,0,4.8,0c0.2,0,0.4,0,0.6,0.1c0.3,0.1,0.5,0.2,0.5,0.6c0,0.3-0.3,0.4-0.6,0.5c-0.1,0-0.3,0-0.4,0c-0.2,0-0.5,0-0.7,0
			c-1,0-1,0-1.2,0.9c-0.3,0.9-0.5,1.8-0.6,2.8c-0.5,2.3-0.9,4.6-1.4,6.9c-0.7,3.4-1.2,6.8-2.1,10.1c-0.4,1.7-0.8,3.3-1.1,5
			c-0.4,1.7-0.8,3.4-1,5.1c0,0.1,0,0.2-0.1,0.2c-0.1,0.4-0.2,0.7-0.7,0.7c-0.4,0-0.5-0.3-0.7-0.6c-0.2-0.5-0.5-1-0.7-1.5
			c-1-2.5-1.8-5.1-2.7-7.6c-0.7-2-1.5-4-2.2-6c-0.6-1.7-1.2-3.5-1.8-5.2C419.8,396.9,419.7,396.9,419.6,396.7z"/>
		<path class="st0" d="M450.5,383.9c2.9,0,5.2,1.2,7.1,2.9c1,0.9,1.8,2.1,2.2,3.5c0.2,0.7,0.6,1.4,0.8,2.1c0.6,2.2,0.8,4.4,1,6.7
			c0.2,2.7-0.2,5.4-0.9,8c-0.6,2.3-1.7,4.5-3.1,6.4c-0.1,0.1-0.2,0.2-0.2,0.3c-0.7,1.4-1.9,2.4-3.1,3.2c-2.1,1.5-4.4,2.4-7.1,2
			c-2.1-0.3-3.8-1.2-5.2-2.6c-0.7-0.7-1.2-1.6-1.6-2.5c-0.6-1.4-1.3-2.7-1.6-4.2c-0.6-2.3-1.1-4.6-1-7c0.1-3,0.4-6,1.5-8.9
			c0.6-1.6,1.5-3.1,2.6-4.5c1-1.3,2.2-2.5,3.5-3.5C446.7,384.7,448.6,383.8,450.5,383.9z M459.8,400.4c0-1.4-0.2-3.3-0.5-5.2
			c-0.2-1.6-0.7-3.2-1.2-4.8c-0.3-1.1-0.8-2.1-1.6-2.8c-1.5-1.4-3.2-2.3-5.3-2.4c-1.9-0.1-3.7,0.2-5,1.6c-0.9,0.9-1.7,1.9-2.4,2.9
			c-0.7,1.1-1.4,2.3-2,3.6c-0.7,1.6-1.1,3.3-1.5,5c-0.5,2.3-0.4,4.5-0.4,6.8c0,2.3,0.4,4.5,0.9,6.7c0.3,1.5,1.1,2.8,2.1,3.9
			c1.2,1.4,2.8,2.1,4.7,2.3c2.3,0.2,4.2-0.5,6-1.7c1-0.6,1.8-1.6,2.5-2.5c0.7-0.9,1-2,1.5-3C459.1,407.6,459.8,404.3,459.8,400.4z"
			/>
		<path class="st0" d="M490,408.6c0,2.6,0,5.1,0,7.7c0,0.9,0.1,1,1,1.1c0.3,0,0.5,0,0.8,0c0.2,0,0.5,0.1,0.7,0.2
			c0.3,0.2,0.3,0.5-0.1,0.7c-0.3,0.1-0.5,0.1-0.8,0.1c-1.2-0.1-2.3-0.1-3.5-0.1c-0.4,0-0.8,0-1.1,0c-0.3,0-0.5,0-0.8-0.1
			c-0.2-0.1-0.4-0.2-0.4-0.5c0-0.3,0.2-0.5,0.4-0.5c0.3,0,0.7,0,1.1,0c0.8,0,0.8-0.1,0.8-0.8c0.1-3.7,0-7.5,0-11.2
			c0-1.6,0-3.2,0-4.8s0-3.2,0-4.8c0-2.6,0-5.1,0-7.7c0-0.1,0-0.3,0-0.4c0-1.1-0.2-1.2-1.3-1.1c-0.3,0-0.6,0.1-0.9,0
			s-0.5-0.3-0.5-0.6c0-0.3,0.3-0.4,0.6-0.4c0.3,0,0.6,0,0.9,0c3.3,0.1,6.6,0.2,9.9,0.1c2.2,0,4.4-0.1,6.7-0.1c1.6,0,1.6,0.1,1.6,1.7
			c0,1.2,0,2.3,0,3.5c0,0.4,0,0.8-0.1,1.1c-0.1,0.2-0.2,0.5-0.5,0.4c-0.2,0-0.4-0.2-0.4-0.4c-0.1-0.6-0.2-1.3-0.1-1.9
			c0.1-0.5,0.1-1,0.1-1.5c-0.1-1-0.5-1.5-1.4-1.7c-0.4-0.1-0.9-0.1-1.3-0.1c-2.9,0.2-5.8,0.1-8.7,0.1c-0.7,0-1.3,0-2,0
			c-0.6,0-0.8,0.2-0.8,0.8c0,0.4,0,0.7,0,1.1c0.1,1.8,0.1,3.7,0,5.5c0,1.2-0.1,2.4-0.1,3.7c0,0.3,0,0.5,0,0.8c0,0.4,0.2,0.6,0.6,0.5
			c1,0,2.1-0.1,3.1-0.1c0.9,0,1.3-0.3,1.6-1.2c0.1-0.4,0.2-0.7,0.2-1.1c0-0.5,0.1-1,0.2-1.4c0.1-0.2,0.3-0.4,0.6-0.4
			c0.3,0,0.3,0.3,0.3,0.5c0,0.1,0,0.3,0,0.4c0,2.3,0,4.5,0,6.8c0,0.4-0.1,0.8-0.3,1.2c-0.1,0.2-0.3,0.4-0.5,0.3s-0.4-0.2-0.4-0.5
			c0-0.2,0-0.5,0-0.7c0-0.5,0-1-0.1-1.5c-0.1-0.8-0.4-1.1-1.2-1.1c-1.1,0-2.2,0-3.3,0c-0.6,0-0.6,0.1-0.6,0.7c0,1.8,0,3.6,0,5.4
			C490,406.9,490,407.7,490,408.6L490,408.6z"/>
		<path class="st0" d="M483.3,414.7c0,0.9,0,1.8,0,2.6c0,0.8-0.3,1.1-1.1,1.1c-1.2,0-2.4,0.1-3.7,0.1c-0.9,0-1.8,0.1-2.8,0.1
			c-2.5,0-4.9,0.1-7.4,0c-1.4,0-2.9-0.1-4.3,0c-0.2,0-0.4,0-0.7,0c-0.3,0-0.6-0.2-0.6-0.6c0-0.3,0.2-0.5,0.5-0.5
			c0.4,0,0.8,0,1.1-0.1c0.6,0,0.7-0.1,0.7-0.7c-0.1-0.4,0-0.9,0.1-1.3c0.1-0.6,0.1-1.2,0.1-1.8c0-2.1-0.1-4.2,0-6.3
			c0.1-2.7,0.1-5.4,0.3-8.1c0.1-1.2,0.1-2.4,0.1-3.6c-0.1-2.9,0.3-5.9-0.1-8.8c-0.1-0.7-0.1-0.7-0.8-0.8c-0.4,0-0.9-0.1-1.3-0.1
			c-0.2,0-0.4,0-0.6-0.1c-0.3-0.2-0.3-0.5-0.1-0.7c0.2-0.2,0.4-0.2,0.7-0.2c0.7,0,1.4-0.1,2.1,0c1,0.1,2,0.1,3,0c0.2,0,0.5,0,0.7,0
			c0.3,0.1,0.7,0.2,0.6,0.6c0,0.4-0.4,0.5-0.7,0.5c-0.3,0-0.6,0-0.9,0c-0.6,0-0.7,0.1-0.7,0.7c-0.2,2.2-0.1,4.3-0.1,6.5
			c0,1.2,0,2.3,0.1,3.5c0.1,1.2-0.1,2.5-0.1,3.7c0.1,2.9-0.2,5.8-0.2,8.6c0,2.3-0.3,4.6-0.3,6.9c0,0.2,0,0.4,0,0.6
			c0,0.5,0.1,0.6,0.6,0.7c1,0.1,2,0.1,3,0c2.6,0,5.2-0.1,7.8-0.1c1.9,0,3.4-1.3,3.5-3.3c0-0.5,0-1.1,0-1.6c0-0.2,0-0.4,0-0.6
			c0-0.3,0.1-0.7,0.6-0.7c0.4,0,0.5,0.3,0.5,0.6C483.4,412.8,483.3,413.8,483.3,414.7z"/>
	</g>
</g>
</svg>
