<?xml version="1.0" encoding="utf-8"?>
<!-- Generator: Adobe Illustrator 19.1.0, SVG Export Plug-In . SVG Version: 6.00 Build 0)  -->
<svg version="1.1" id="Layer_1" xmlns="http://www.w3.org/2000/svg" xmlns:xlink="http://www.w3.org/1999/xlink" x="0px" y="0px"
	 width="24px" height="25px" viewBox="0 0 24 25" style="enable-background:new 0 0 24 25;" xml:space="preserve">
<style type="text/css">
	.st0{fill:#DDAF3B;}
</style>
<path class="st0" d="M4,5.3c0.4,0,0.8,0,1.1,0.1c3.4,0.8,6.5,0.5,8.6-2.8c0.2-0.3,0.5-0.6,0.9-0.7c0.9-0.5,1.6-1.9,2.6-1.4
	c1.1,0.6,0.7,2.1,0.6,3.2c-0.5,4.5-0.3,4.7,3.7,6.9c0.9,0.5,2.3,0.7,2.2,2s-1.7,1.1-2.6,1.3c-4.1,0.5-4.9,3.5-5.6,6.8
	c-0.3,1.4,0.1,3.7-1.7,3.9c-1.5,0.2-1.9-2.1-2.3-3.3c-1.2-3.7-3.9-3.3-6.7-2.8c-1.5,0.2-3.7,1.2-4.3,0c-0.7-1.5,1.4-2.6,2.4-3.8
	c2.6-2.8,2.6-2.8-0.2-6.8C2.2,7.2,1.3,6.6,1.8,5.7C2.3,5,3.3,5.4,4,5.3z"/>
</svg>
